<?xml version="1.0" encoding="UTF-8"?>
<svg width="42px" height="42px" viewBox="0 0 42 42" version="1.1" xmlns="http://www.w3.org/2000/svg" xmlns:xlink="http://www.w3.org/1999/xlink">
    <!-- Generator: Sketch 44.1 (41455) - http://www.bohemiancoding.com/sketch -->
    <desc>Created with Sketch.</desc>
    <defs></defs>
    <g id="默认图标-(icons/default-5-10)" stroke="none" stroke-width="1" fill="none" fill-rule="evenodd">
        <g id="默认">
            <g id="Group" transform="translate(6.000000, 9.000000)">
                <path d="M0,2.00494659 C0,0.897645164 0.889763236,0 2.00359486,0 L24.004543,0 C24.5543187,0 25.3127724,0.312772393 25.7057732,0.70577316 L29.2942268,4.29422684 C29.6840146,4.68401459 30,5.45092539 30,5.99477117 L30,22.0025781 C30,23.1057238 29.1021596,24 28.008383,24 L1.99161703,24 C0.891677316,24 0,23.1029738 0,21.9950534 L0,2.00494659 Z" id="Rectangle-3" fill="#FFFFFF"></path>
                <path d="M15.086,5 C13.79,5 12.782,5.396 12.062,6.188 C11.342,6.944 11,7.952 11,9.212 L12.422,9.212 C12.422,8.33 12.62,7.646 13.016,7.142 C13.448,6.548 14.114,6.26 15.014,6.26 C15.77,6.26 16.364,6.458 16.778,6.89 C17.174,7.286 17.39,7.844 17.39,8.564 C17.39,9.068 17.21,9.536 16.85,9.986 C16.742,10.13 16.526,10.346 16.238,10.634 C15.266,11.498 14.672,12.182 14.42,12.722 C14.204,13.172 14.096,13.694 14.096,14.288 L14.096,14.702 L15.536,14.702 L15.536,14.288 C15.536,13.802 15.644,13.37 15.878,12.974 C16.058,12.65 16.328,12.326 16.724,11.984 C17.516,11.282 18.002,10.814 18.182,10.598 C18.632,10.004 18.866,9.302 18.866,8.492 C18.866,7.412 18.524,6.566 17.858,5.954 C17.156,5.306 16.238,5 15.086,5 Z M14.816,15.962 C14.51,15.962 14.258,16.052 14.042,16.268 C13.826,16.466 13.736,16.718 13.736,17.024 C13.736,17.33 13.826,17.582 14.042,17.798 C14.258,17.996 14.51,18.104 14.816,18.104 C15.122,18.104 15.374,17.996 15.59,17.798 C15.806,17.6 15.914,17.348 15.914,17.024 C15.914,16.718 15.806,16.466 15.608,16.268 C15.392,16.052 15.122,15.962 14.816,15.962 Z" id="？" fill="#121212"></path>
            </g>
        </g>
    </g>
</svg>