<svg viewBox="0 0 42 42" xmlns="http://www.w3.org/2000/svg"><g fill="none" fill-rule="evenodd"><path d="M6 11.005A2 2 0 0 1 8.004 9h22c.55 0 1.309.313 1.702.706l3.588 3.588c.39.39.706 1.157.706 1.7v16.009A1.998 1.998 0 0 1 34.008 33H7.992C6.892 33 6 32.103 6 30.995v-19.99z" fill="#DBDBDB"/><path d="M21.086 14c-1.296 0-2.304.396-3.024 1.188-.72.756-1.062 1.764-1.062 3.024h1.422c0-.882.198-1.566.594-2.07.432-.594 1.098-.882 1.998-.882.756 0 1.35.198 1.764.63.396.396.612.954.612 1.674 0 .504-.18.972-.54 1.422-.108.144-.324.36-.612.648-.972.864-1.566 1.548-1.818 2.088-.216.45-.324.972-.324 1.566v.414h1.44v-.414c0-.486.108-.918.342-1.314.18-.324.45-.648.846-.99.792-.702 1.278-1.17 1.458-1.386.45-.594.684-1.296.684-2.106 0-1.08-.342-1.926-1.008-2.538-.702-.648-1.62-.954-2.772-.954zm-.27 10.962c-.306 0-.558.09-.774.306-.216.198-.306.45-.306.756s.09.558.306.774c.216.198.468.306.774.306s.558-.108.774-.306c.216-.198.324-.45.324-.774 0-.306-.108-.558-.306-.756-.216-.216-.486-.306-.792-.306z" fill="#383838"/></g></svg>