<svg viewBox="0 0 42 42" xmlns="http://www.w3.org/2000/svg" xmlns:xlink="http://www.w3.org/1999/xlink"><defs><rect id="a" x="5" width="30" height="24" rx="2"/><path d="M8 3.993A.997.997 0 0 1 9 3h22c.552 0 1 .445 1 .993v16.014A.997.997 0 0 1 31 21H9c-.552 0-1-.445-1-.993V3.993z" id="b"/><path d="M.564 8.917C.252 7.858.892 7 1.994 7h9.418c.549 0 1.202.398 1.459.888l1.164 2.224c.257.49.912.888 1.458.888h13.514c.548 0 1.154.418 1.353.935l3.924 10.202c.395 1.03-.182 1.863-1.276 1.863H6.992c-1.1 0-2.247-.866-2.556-1.917L.564 8.917z" id="c"/></defs><g fill="none" fill-rule="evenodd"><g transform="translate(1 9)"><use fill="#469CEA" xlink:href="#a"/><use fill-opacity=".5" fill="#469CEA" style="mix-blend-mode:multiply" xlink:href="#a"/><rect x="5.5" y=".5" width="29" height="23" rx="2"/></g><g transform="translate(1 9)"><use fill="#FFF" xlink:href="#b"/><path d="M8.5 3.993c0-.272.223-.493.5-.493h22c.277 0 .5.222.5.493v16.014a.497.497 0 0 1-.5.493H9a.497.497 0 0 1-.5-.493V3.993z"/></g><g transform="translate(1 9)"><use fill="#469CEA" xlink:href="#c"/><path d="M1.044 8.776c-.218-.739.182-1.276.95-1.276h9.418c.362 0 .845.294 1.016.62l1.164 2.224c.343.654 1.168 1.156 1.901 1.156h13.514c.341 0 .761.29.886.614l3.924 10.203c.269.7-.064 1.183-.809 1.183H6.992c-.875 0-1.829-.717-2.076-1.558L1.044 8.776z"/></g></g></svg>