<svg viewBox="0 0 42 42" xmlns="http://www.w3.org/2000/svg" xmlns:xlink="http://www.w3.org/1999/xlink"><defs><rect id="a" width="30" height="24" rx="2"/><rect id="b" x="3" y="3" width="24" height="18" rx="1"/><path d="M0 2.005C0 .898.892 0 1.993 0h9.419c.549 0 1.144.432 1.321.938l1.44 4.125c.18.517.774.937 1.32.937h13.514c.548 0 .993.445.993.993v15.012A1.997 1.997 0 0 1 28.008 24H1.992C.892 24 0 23.103 0 21.995V2.005z" id="c"/></defs><g fill="none" fill-rule="evenodd"><g transform="translate(6 9)"><use fill="#469CEA" xlink:href="#a"/><use fill-opacity=".5" fill="#469CEA" style="mix-blend-mode:multiply" xlink:href="#a"/><rect x=".5" y=".5" width="29" height="23" rx="2"/></g><g transform="translate(6 9)"><use fill="#FFF" xlink:href="#b"/><rect x="3.5" y="3.5" width="23" height="17" rx="1"/></g><g transform="translate(6 9)"><use fill="#469CEA" xlink:href="#c"/><path d="M.5 2.005C.5 1.173 1.17.5 1.993.5h9.419c.331 0 .74.292.849.602l1.44 4.125c.25.718 1.033 1.273 1.792 1.273h13.514c.272 0 .493.221.493.493v15.012c0 .823-.672 1.495-1.492 1.495H1.992A1.498 1.498 0 0 1 .5 21.995V2.005z"/></g></g></svg>