<svg viewBox="0 0 42 42" xmlns="http://www.w3.org/2000/svg" xmlns:xlink="http://www.w3.org/1999/xlink"><defs><path d="M0 2.005A2 2 0 0 1 2.004 0h22c.55 0 1.309.313 1.702.706l3.588 3.588c.39.39.706 1.157.706 1.7v16.009A1.998 1.998 0 0 1 28.008 24H1.992C.892 24 0 23.103 0 21.995V2.005z" id="a"/></defs><g fill="none" fill-rule="evenodd"><g transform="translate(5 10)"><use fill-opacity=".5" fill="#000" xlink:href="#a"/><path stroke="#DBDBDB" stroke-width="2" d="M1 2.005A1 1 0 0 1 2.004 1h22c.287 0 .79.209.995.413L28.587 5c.201.201.413.713.413.994v16.008a.999.999 0 0 1-.992.997H1.992A.998.998 0 0 1 1 21.995V2.005z"/></g><text font-family="PingFangSC-Regular, PingFang SC" font-size="9" letter-spacing=".643" fill="#FFF" transform="translate(5 10)"><tspan x="5" y="10">&gt;_</tspan></text></g></svg>