<svg viewBox="0 0 42 42" xmlns="http://www.w3.org/2000/svg" xmlns:xlink="http://www.w3.org/1999/xlink"><defs><circle id="a" cx="18" cy="18" r="18"/></defs><g fill="none" fill-rule="evenodd"><g transform="translate(3 3)"><use fill="#2C76B9" xlink:href="#a"/><circle stroke-opacity=".6" stroke="#FFF" cx="18" cy="18" r="17.5"/></g><path d="M21.877 27.96c-.485-.254-1.266-.255-1.754 0l-4.992 2.625c-.979.515-1.622.054-1.434-1.041l.954-5.56c.092-.538-.148-1.282-.542-1.667L10.07 18.38c-.792-.771-.552-1.525.548-1.685l5.581-.811c.542-.079 1.175-.537 1.419-1.03l2.496-5.059c.49-.991 1.28-.996 1.772 0l2.496 5.058c.242.49.874.952 1.419 1.03l5.581.812c1.095.159 1.343.91.548 1.685l-4.039 3.937c-.392.382-.635 1.125-.542 1.668l.954 5.559c.187 1.09-.45 1.558-1.434 1.041l-4.992-2.624z" fill="#FFF"/></g></svg>