<svg viewBox="0 0 184 184" xmlns="http://www.w3.org/2000/svg"><defs><linearGradient x1="50%" y1="0%" x2="50%" y2="97.891%" id="a"><stop stop-color="#2086E2" offset="0%"/><stop stop-color="#2C76B9" stop-opacity=".8" offset="100%"/></linearGradient><linearGradient x1="0%" y1="0%" y2="100%" id="b"><stop stop-color="#FFF" offset="0%"/><stop stop-color="#FFF" stop-opacity=".612" offset="100%"/></linearGradient><linearGradient x1="-10.19%" y1="-5.322%" x2="106.494%" y2="100%" id="c"><stop stop-color="#FFF" offset="0%"/><stop stop-color="#FFF" stop-opacity=".784" offset="100%"/></linearGradient></defs><g fill="none" fill-rule="evenodd"><circle fill="url(#a)" cx="92" cy="92" r="92"/><path d="M92 179c48.049 0 87-38.951 87-87S140.049 5 92 5 5 43.951 5 92s38.951 87 87 87zm0 5c-50.81 0-92-41.19-92-92S41.19 0 92 0s92 41.19 92 92-41.19 92-92 92z" fill="url(#b)" fill-rule="nonzero"/><path d="M35 119.205v-54.41l10.364-6.477 29.003 22.116L120.5 35 149 46.66v90.68L120.5 149l-46.133-45.434-29.003 22.116L35 119.205zm10.364-10.207L62.624 92l-17.26-16.998v33.996zm75.136 6.612V68.39L89.537 92l30.963 23.61z" fill="url(#c)"/></g></svg>