<svg viewBox="0 0 42 42" xmlns="http://www.w3.org/2000/svg" xmlns:xlink="http://www.w3.org/1999/xlink"><defs><linearGradient x1="2.676%" y1="0%" x2="43.05%" y2="54.342%" id="b"><stop offset="0%"/><stop stop-opacity="0" offset="100%"/></linearGradient><path d="M15.836 23.814c7.02 9.658 13.888-2.695 13.878-10.123C29.703 4.909 20.883 0 15.83 0 7.11.09.067 7.216 0 16.018 0 26.303 8.852 32 15.83 32c-1.58-.229-6.842-1.372-6.911-13.601-.048-8.275 2.674-11.58 6.901-10.127 2.986 1.393 4.832 4.48 4.663 7.795.145 3.293-1.689 6.35-4.647 7.747z" id="a"/><linearGradient x1="41.107%" y1="40.552%" x2="116.171%" y2="100%" id="d"><stop stop-opacity="0" offset="0%"/><stop offset="100%"/></linearGradient><path d="M16.06 8.28c-4.649-1.612-10.346 2.244-10.346 9.966C5.715 30.857 15.004 32 16.13 32c8.743-.09 15.803-7.21 15.871-16.007C32 5.715 23.126.02 16.13.02c1.937-.27 10.445 2.11 10.445 13.806 0 7.629-6.353 11.78-10.485 10.007a8.127 8.127 0 0 1-4.674-7.79A8.2 8.2 0 0 1 16.06 8.28z" id="c"/></defs><g fill-rule="evenodd" fill="none"><g transform="translate(5 5)"><use fill="#97C4FF" xlink:href="#a"/><use fill-opacity=".5" fill="url(#b)" xlink:href="#a"/></g><g transform="translate(5 5)"><use fill="#97C4FF" xlink:href="#c"/><use fill-opacity=".5" fill="url(#d)" xlink:href="#c"/></g></g></svg>