<svg viewBox="0 0 42 42" xmlns="http://www.w3.org/2000/svg" xmlns:xlink="http://www.w3.org/1999/xlink"><defs><path d="M0 2.005A2 2 0 0 1 2.004 0h22c.55 0 1.309.313 1.702.706l3.588 3.588c.39.39.706 1.157.706 1.7v16.009A1.998 1.998 0 0 1 28.008 24H1.992C.892 24 0 23.103 0 21.995V2.005z" id="a"/></defs><g transform="translate(6 9)" fill="none" fill-rule="evenodd"><mask id="b" fill="#fff"><use xlink:href="#a"/></mask><use fill="#EA6C00" xlink:href="#a"/><g mask="url(#b)"><path fill="#FDCA1A" d="M0 0l6 6h15l4-6z"/><path fill="#FDAD00" d="M21 6l3 5 6-6-5-5z"/><path fill="#EA6C00" d="M24 11v7l6 6V5z"/><path d="M24 18l6 6H0l6-6h18z" fill="#EA6C00"/><path fill="#FDAD00" d="M0 0v24l6-6V6z"/><path d="M5 6.007C5 5.45 5.445 5 6 5h14c.552 0 1.275.344 1.625.781l2.75 3.438c.345.431.625 1.227.625 1.779v7.004c0 .551-.455.998-.992.998H5.992A.999.999 0 0 1 5 17.993V6.007z" fill="#FEEEB7"/></g></g></svg>