<svg viewBox="0 0 42 42" xmlns="http://www.w3.org/2000/svg"><g fill="none" fill-rule="evenodd"><path d="M5 12.005A2 2 0 0 1 7.004 10h22c.55 0 1.309.313 1.702.706l3.588 3.588c.39.39.706 1.157.706 1.7v16.009A1.998 1.998 0 0 1 33.008 34H6.992C5.892 34 5 33.103 5 31.995v-19.99z" fill="#DBDBDB"/><path d="M9 15a1 1 0 0 1 .999-1H21a1 1 0 1 1 0 2H10A.997.997 0 0 1 9 15zm0 5c0-.552.44-1 1.002-1h19.996A.999.999 0 0 1 31 20c0 .552-.44 1-1.002 1H10.002A.999.999 0 0 1 9 20zm0 5c0-.552.44-1 1.002-1h19.996A.999.999 0 0 1 31 25c0 .552-.44 1-1.002 1H10.002A.999.999 0 0 1 9 25z" fill="#656565"/></g></svg>