<?xml version="1.0" encoding="UTF-8"?>
<svg width="42px" height="42px" viewBox="0 0 42 42" version="1.1" xmlns="http://www.w3.org/2000/svg" xmlns:xlink="http://www.w3.org/1999/xlink">
    <!-- Generator: Sketch 44.1 (41455) - http://www.bohemiancoding.com/sketch -->
    <desc>Created with Sketch.</desc>
    <defs>
        <path d="M0,2.00494659 C0,0.897645164 0.889763236,0 2.00359486,0 L24.004543,0 C24.5543187,0 25.3127724,0.312772393 25.7057732,0.70577316 L29.2942268,4.29422684 C29.6840146,4.68401459 30,5.45092539 30,5.99477117 L30,22.0025781 C30,23.1057238 29.1021596,24 28.008383,24 L1.99161703,24 C0.891677316,24 0,23.1029738 0,21.9950534 L0,2.00494659 Z" id="path-1"></path>
    </defs>
    <g id="扩展名-(icons/extensions-5-10)" stroke="none" stroke-width="1" fill="none" fill-rule="evenodd">
        <g id="压缩包">
            <g id="Group-2" transform="translate(6.000000, 9.000000)">
                <mask id="mask-2" fill="white">
                    <use xlink:href="#path-1"></use>
                </mask>
                <use id="Mask" fill="#A0DBFB" xlink:href="#path-1"></use>
                <rect id="Rectangle-4" fill="#70CCF5" mask="url(#mask-2)" x="0" y="0" width="30" height="8"></rect>
                <rect id="Rectangle-4" fill="#FC8463" mask="url(#mask-2)" x="0" y="8" width="30" height="8"></rect>
                <rect id="Rectangle-4" fill="#7CD061" mask="url(#mask-2)" x="0" y="16" width="30" height="8"></rect>
                <rect id="Rectangle-5" fill="#FFFFFF" opacity="0.8" mask="url(#mask-2)" x="9" y="0" width="3" height="24"></rect>
            </g>
        </g>
    </g>
</svg>