<?xml version="1.0" encoding="UTF-8"?>
<svg width="42px" height="42px" viewBox="0 0 42 42" version="1.1" xmlns="http://www.w3.org/2000/svg" xmlns:xlink="http://www.w3.org/1999/xlink">
    <!-- Generator: Sketch 44.1 (41455) - http://www.bohemiancoding.com/sketch -->
    <desc>Created with Sketch.</desc>
    <defs></defs>
    <g id="扩展名-(icons/extensions-5-10)" stroke="none" stroke-width="1" fill="none" fill-rule="evenodd">
        <g id="C++">
            <g id="Group" transform="translate(6.000000, 9.000000)">
                <path d="M0,2.00494659 C0,0.897645164 0.889763236,0 2.00359486,0 L24.004543,0 C24.5543187,0 25.3127724,0.312772393 25.7057732,0.70577316 L29.2942268,4.29422684 C29.6840146,4.68401459 30,5.45092539 30,5.99477117 L30,22.0025781 C30,23.1057238 29.1021596,24 28.008383,24 L1.99161703,24 C0.891677316,24 0,23.1029738 0,21.9950534 L0,2.00494659 Z" id="Rectangle-3" fill="#9F3F6C"></path>
                <path d="M7.42138672,16.1157227 C8.24495854,16.1157227 8.94050823,15.9035666 9.50805664,15.479248 C10.0756051,15.0549295 10.4238275,14.4864944 10.5527344,13.7739258 L9.56982422,13.7739258 C9.44807882,14.2215192 9.19474476,14.5751126 8.80981445,14.8347168 C8.42488414,15.094321 7.96207953,15.2241211 7.42138672,15.2241211 C6.67659133,15.2241211 6.08577692,14.939456 5.64892578,14.3701172 C5.21207464,13.8007784 4.99365234,13.0309293 4.99365234,12.0605469 C4.99365234,11.0865837 5.21117947,10.3149443 5.64624023,9.74560547 C6.081301,9.17626668 6.67122023,8.89160156 7.41601562,8.89160156 C7.94954694,8.89160156 8.40966604,9.03751482 8.79638672,9.3293457 C9.1831074,9.62117659 9.44091732,10.0177384 9.56982422,10.519043 L10.5527344,10.519043 C10.4381505,9.77066683 10.0908232,9.16373931 9.51074219,8.69824219 C8.93066116,8.23274507 8.23242596,8 7.41601562,8 C6.36327599,8 5.53076478,8.36344038 4.91845703,9.09033203 C4.30614928,9.81722369 4,10.8072854 4,12.0605469 C4,13.3102276 4.30704446,14.298499 4.92114258,15.0253906 C5.5352407,15.7522823 6.36864708,16.1157227 7.42138672,16.1157227 Z M16.2148437,13.215332 L18.5512695,13.215332 L18.5512695,12.4204102 L16.2148437,12.4204102 L16.2148437,10.0839844 L15.4199218,10.0839844 L15.4199218,12.4204102 L13.083496,12.4204102 L13.083496,13.215332 L15.4199218,13.215332 L15.4199218,15.5517578 L16.2148437,15.5517578 L16.2148437,13.215332 Z M24.4121093,13.215332 L26.748535,13.215332 L26.748535,12.4204102 L24.4121093,12.4204102 L24.4121093,10.0839844 L23.6171874,10.0839844 L23.6171874,12.4204102 L21.2807616,12.4204102 L21.2807616,13.215332 L23.6171874,13.215332 L23.6171874,15.5517578 L24.4121093,15.5517578 L24.4121093,13.215332 Z" id="C++" fill="#FFFFFF"></path>
            </g>
        </g>
    </g>
</svg>