<svg viewBox="0 0 42 42" xmlns="http://www.w3.org/2000/svg"><g fill="none" fill-rule="evenodd"><path d="M6 11.005A2 2 0 0 1 8.004 9h22c.55 0 1.309.313 1.702.706l3.588 3.588c.39.39.706 1.157.706 1.7v16.009A1.998 1.998 0 0 1 34.008 33H7.992C6.892 33 6 32.103 6 30.995v-19.99z" fill="#006093"/><path d="M20.715 28.299c1.348 0 2.486-.347 3.414-1.042.93-.694 1.499-1.624 1.71-2.79H24.23a2.971 2.971 0 0 1-1.243 1.736c-.63.424-1.387.637-2.272.637-1.219 0-2.186-.466-2.9-1.398-.715-.931-1.073-2.191-1.073-3.779 0-1.594.356-2.856 1.068-3.788.712-.932 1.677-1.397 2.896-1.397.873 0 1.626.238 2.259.716.633.477 1.055 1.126 1.265 1.947h1.609c-.188-1.225-.756-2.218-1.705-2.98-.95-.762-2.092-1.142-3.428-1.142-1.723 0-3.085.594-4.087 1.784-1.002 1.19-1.503 2.81-1.503 4.86 0 2.045.503 3.662 1.508 4.852 1.004 1.19 2.368 1.784 4.09 1.784z" fill="#FFF"/></g></svg>