<?xml version="1.0" encoding="UTF-8"?>
<svg width="42px" height="42px" viewBox="0 0 42 42" version="1.1" xmlns="http://www.w3.org/2000/svg" xmlns:xlink="http://www.w3.org/1999/xlink">
    <!-- Generator: Sketch 44.1 (41455) - http://www.bohemiancoding.com/sketch -->
    <desc>Created with Sketch.</desc>
    <defs></defs>
    <g id="扩展名-(icons/extensions-5-10)" stroke="none" stroke-width="1" fill="none" fill-rule="evenodd">
        <g id="C">
            <g id="Group" transform="translate(6.000000, 9.000000)">
                <path d="M0,2.00494659 C0,0.897645164 0.889763236,0 2.00359486,0 L24.004543,0 C24.5543187,0 25.3127724,0.312772393 25.7057732,0.70577316 L29.2942268,4.29422684 C29.6840146,4.68401459 30,5.45092539 30,5.99477117 L30,22.0025781 C30,23.1057238 29.1021596,24 28.008383,24 L1.99161703,24 C0.891677316,24 0,23.1029738 0,21.9950534 L0,2.00494659 Z" id="Rectangle-3" fill="#006093"></path>
                <path d="M14.7148438,19.2988281 C16.0625067,19.2988281 17.200679,18.9516636 18.1293945,18.2573242 C19.0581101,17.5629848 19.6279286,16.6328183 19.8388672,15.4667969 L18.2304688,15.4667969 C18.031249,16.1992224 17.6167024,16.7778299 16.9868164,17.2026367 C16.3569304,17.6274435 15.5996138,17.8398438 14.7148438,17.8398438 C13.4960877,17.8398438 12.5293004,17.3740281 11.8144531,16.4423828 C11.0996058,15.5107375 10.7421875,14.2509845 10.7421875,12.6630859 C10.7421875,11.069328 11.098141,9.80664528 11.8100586,8.875 C12.5219762,7.94335472 13.4872986,7.47753906 14.7060547,7.47753906 C15.5791059,7.47753906 16.3320281,7.71630621 16.9648438,8.19384766 C17.5976594,8.67138911 18.0195302,9.3203084 18.2304688,10.140625 L19.8388672,10.140625 C19.6513663,8.9160095 19.0830126,7.92285537 18.1337891,7.16113281 C17.1845656,6.39941025 16.0419989,6.01855469 14.7060547,6.01855469 C12.9833898,6.01855469 11.6210988,6.6132753 10.6191406,7.80273438 C9.61718249,8.99219345 9.11621094,10.6122944 9.11621094,12.6630859 C9.11621094,14.708018 9.61864732,16.3251894 10.6235352,17.5146484 C11.628423,18.7041075 12.9921789,19.2988281 14.7148438,19.2988281 Z" id="C" fill="#FFFFFF"></path>
            </g>
        </g>
    </g>
</svg>