<?xml version="1.0" encoding="UTF-8"?>
<svg width="42px" height="42px" viewBox="0 0 42 42" version="1.1" xmlns="http://www.w3.org/2000/svg" xmlns:xlink="http://www.w3.org/1999/xlink">
    <!-- Generator: Sketch 44.1 (41455) - http://www.bohemiancoding.com/sketch -->
    <desc>Created with Sketch.</desc>
    <defs></defs>
    <g id="扩展名-(icons/extensions-5-10)" stroke="none" stroke-width="1" fill="none" fill-rule="evenodd">
        <g id="C++">
            <g id="Group" transform="translate(6.000000, 9.000000)">
                <path d="M0,2.00494659 C0,0.897645164 0.889763236,0 2.00359486,0 L24.004543,0 C24.5543187,0 25.3127724,0.312772393 25.7057732,0.70577316 L29.2942268,4.29422684 C29.6840146,4.68401459 30,5.45092539 30,5.99477117 L30,22.0025781 C30,23.1057238 29.1021596,24 28.008383,24 L1.99161703,24 C0.891677316,24 0,23.1029738 0,21.9950534 L0,2.00494659 Z" id="Rectangle-3" fill="#178600"></path>
                <path d="M10.043457,16.5913086 C11.0167692,16.5913086 11.8387825,16.3405787 12.5095215,15.8391113 C13.1802605,15.337644 13.5917961,14.6658571 13.7441406,13.8237305 L12.5825195,13.8237305 C12.4386386,14.3527045 12.1392438,14.7705877 11.6843262,15.0773926 C11.2294085,15.3841975 10.6824576,15.5375977 10.043457,15.5375977 C9.1632443,15.5375977 8.46500909,15.2011752 7.94873047,14.5283203 C7.43245185,13.8554654 7.17431641,12.9456438 7.17431641,11.7988281 C7.17431641,10.6477807 7.43139391,9.73584321 7.94555664,9.06298828 C8.45971937,8.39013335 9.15689664,8.05371094 10.0371094,8.05371094 C10.6676464,8.05371094 11.2114235,8.22615387 11.668457,8.57104492 C12.1254906,8.91593597 12.430175,9.3845999 12.5825195,9.97705078 L13.7441406,9.97705078 C13.6087233,9.09260625 13.1982456,8.37532827 12.5126953,7.82519531 C11.827145,7.27506235 11.0019579,7 10.0371094,7 C8.79296253,7 7.80908565,7.42952044 7.08544922,8.28857422 C6.36181279,9.14762799 6,10.3177009 6,11.7988281 C6,13.2757235 6.36287072,14.4436806 7.08862305,15.3027344 C7.81437537,16.1617881 8.79931019,16.5913086 10.043457,16.5913086 Z M23.2604309,10.65625 L21.8893372,10.65625 L21.4450012,12.8398438 L22.816095,12.8398438 L22.632013,13.7539062 L21.2609192,13.7539062 L20.7277161,16.3754883 L19.8136536,16.3754883 L20.3532044,13.7539062 L18.4044739,13.7539062 L17.8712708,16.3754883 L16.9635559,16.3754883 L17.4967591,13.7539062 L16.1256653,13.7539062 L16.3224427,12.8398438 L17.6935364,12.8398438 L18.1315247,10.65625 L16.7604309,10.65625 L16.944513,9.74853516 L18.3156067,9.74853516 L18.8361145,7.21582031 L19.7438294,7.21582031 L19.2296692,9.74853516 L21.172052,9.74853516 L21.6925598,7.21582031 L22.6066223,7.21582031 L22.0797669,9.74853516 L23.4508606,9.74853516 L23.2604309,10.65625 Z M19.0265442,10.6435547 L18.9598938,10.9768066 C18.91546,11.1989757 18.8636213,11.4571112 18.8043762,11.7512207 C18.7451312,12.0453302 18.6932925,12.3034657 18.6488587,12.5256348 L18.5822083,12.8588867 L20.5436341,12.8588867 L20.9943177,10.6435547 L19.0265442,10.6435547 Z" id="C#" fill="#FFFFFF"></path>
            </g>
        </g>
    </g>
</svg>