<svg viewBox="0 0 42 42" xmlns="http://www.w3.org/2000/svg"><g fill="none" fill-rule="evenodd"><path d="M6 11.005A2 2 0 0 1 8.004 9h22c.55 0 1.309.313 1.702.706l3.588 3.588c.39.39.706 1.157.706 1.7v16.009A1.998 1.998 0 0 1 34.008 33H7.992C6.892 33 6 32.103 6 30.995v-19.99z" fill="#56C140"/><path d="M16.043 25.591c.974 0 1.796-.25 2.467-.752.67-.501 1.082-1.173 1.234-2.015h-1.161a2.146 2.146 0 0 1-.899 1.253c-.455.307-1.002.46-1.64.46-.88 0-1.579-.336-2.095-1.009-.517-.673-.775-1.582-.775-2.73 0-1.15.257-2.062.772-2.735.514-.673 1.21-1.01 2.091-1.01.63 0 1.174.173 1.631.518.457.345.762.814.915 1.406h1.161c-.135-.884-.546-1.602-1.231-2.152-.686-.55-1.511-.825-2.476-.825-1.244 0-2.228.43-2.952 1.289-.723.859-1.085 2.029-1.085 3.51 0 1.477.363 2.645 1.089 3.504.725.859 1.71 1.288 2.954 1.288zm13.217-5.935h-1.37l-.445 2.184h1.371l-.184.914h-1.371l-.533 2.621h-.914l.54-2.621h-1.95l-.533 2.621h-.907l.533-2.621h-1.371l.196-.914h1.372l.438-2.184H22.76l.185-.907h1.37l.521-2.533h.908l-.514 2.533h1.942l.52-2.533h.915l-.527 2.533h1.37l-.19.907zm-4.233-.012l-.067.333a579.512 579.512 0 0 1-.311 1.549l-.067.333h1.962l.45-2.215h-1.967z" fill="#FFF"/></g></svg>