<?xml version="1.0" encoding="UTF-8"?>
<svg width="42px" height="42px" viewBox="0 0 42 42" version="1.1" xmlns="http://www.w3.org/2000/svg" xmlns:xlink="http://www.w3.org/1999/xlink">
    <!-- Generator: Sketch 44.1 (41455) - http://www.bohemiancoding.com/sketch -->
    <desc>Created with Sketch.</desc>
    <defs>
        <path d="M0,2.00494659 C0,0.897645164 0.889763236,0 2.00359486,0 L24.004543,0 C24.5543187,0 25.3127724,0.312772393 25.7057732,0.70577316 L29.2942268,4.29422684 C29.6840146,4.68401459 30,5.45092539 30,5.99477117 L30,22.0025781 C30,23.1057238 29.1021596,24 28.008383,24 L1.99161703,24 C0.891677316,24 0,23.1029738 0,21.9950534 L0,2.00494659 Z" id="path-1"></path>
    </defs>
    <g id="扩展名-(icons/extensions-5-10)" stroke="none" stroke-width="1" fill="none" fill-rule="evenodd">
        <g id="CSS">
            <g id="Group-3" transform="translate(6.000000, 9.000000)">
                <g id="Mask">
                    <use fill="#1B1B1B" fill-rule="evenodd" xlink:href="#path-1"></use>
                    <path stroke="#E96568" stroke-width="2" d="M1,2.00494659 L1,21.9950534 C1,22.5519156 1.44520033,23 1.99161703,23 L28.008383,23 C28.5518298,23 29,22.5514822 29,22.0025781 L29,5.99477117 C29,5.71418799 28.7879905,5.20220404 28.5871201,5.00133362 L24.9986664,1.41287994 C24.7943372,1.20855074 24.2907084,1 24.004543,1 L2.00359486,1 C1.44527569,1 1,1.44669671 1,2.00494659 Z"></path>
                </g>
                <path d="M7,12.3339844 L7,10.9277344 C7.28515768,10.9121093 7.49999928,10.869141 7.64453125,10.7988281 C7.78906322,10.7285153 7.91406197,10.6103524 8.01953125,10.4443359 C8.12500053,10.2783195 8.19726543,10.0703138 8.23632812,9.8203125 C8.26757828,9.63281156 8.28320312,9.30664295 8.28320312,8.84179688 C8.28320312,8.08398059 8.31835902,7.55566556 8.38867188,7.25683594 C8.45898473,6.95800632 8.58593658,6.71777435 8.76953125,6.53613281 C8.95312592,6.35449128 9.22070137,6.21093803 9.57226562,6.10546875 C9.81054807,6.0351559 10.1855443,6 10.6972656,6 L11.0078125,6 L11.0078125,7.40039062 C10.5742166,7.40039062 10.2958991,7.42480444 10.1728516,7.47363281 C10.0498041,7.52246118 9.95898467,7.59667919 9.90039062,7.69628906 C9.84179658,7.79589894 9.8125,7.96679566 9.8125,8.20898438 C9.8125,8.45507936 9.79492205,8.92187156 9.75976562,9.609375 C9.74023428,9.99609568 9.68945354,10.3095691 9.60742188,10.5498047 C9.52539021,10.7900403 9.42089907,10.9882805 9.29394531,11.1445312 C9.16699155,11.300782 8.97265756,11.4628898 8.7109375,11.6308594 C8.9414074,11.7636725 9.12988208,11.9189444 9.27636719,12.0966797 C9.42285229,12.274415 9.53515586,12.4902331 9.61328125,12.7441406 C9.69140664,12.9980481 9.74218738,13.3378885 9.765625,13.7636719 C9.79296889,14.4121126 9.80664062,14.826171 9.80664062,15.0058594 C9.80664062,15.2636732 9.83789031,15.4433589 9.90039062,15.5449219 C9.96289094,15.6464849 10.0576166,15.7236325 10.1845703,15.7763672 C10.3115241,15.8291018 10.5859354,15.8554688 11.0078125,15.8554688 L11.0078125,17.2617188 L10.6972656,17.2617188 C10.1699192,17.2617188 9.76562641,17.219727 9.484375,17.1357422 C9.20312359,17.0517574 8.96582128,16.9121104 8.77246094,16.7167969 C8.5791006,16.5214834 8.44921908,16.2802749 8.3828125,15.9931641 C8.31640592,15.7060533 8.28320312,15.2539093 8.28320312,14.6367188 C8.28320312,13.9179652 8.25195344,13.4511729 8.18945312,13.2363281 C8.1035152,12.9238266 7.97363368,12.700196 7.79980469,12.5654297 C7.62597569,12.4306634 7.3593768,12.3535157 7,12.3339844 Z M22.2578125,12.3339844 C21.9726548,12.3496095 21.7578132,12.3925778 21.6132812,12.4628906 C21.4687493,12.5332035 21.3447271,12.6513664 21.2412109,12.8173828 C21.1376948,12.9833993 21.0644533,13.191405 21.0214844,13.4414062 C20.9902342,13.6289072 20.9746094,13.9531227 20.9746094,14.4140625 C20.9746094,15.1718788 20.94043,15.7011704 20.8720703,16.0019531 C20.8037106,16.3027359 20.6777353,16.5439444 20.4941406,16.7255859 C20.310546,16.9072275 20.0410174,17.0507807 19.6855469,17.15625 C19.4472644,17.2265629 19.0722682,17.2617188 18.5605469,17.2617188 L18.25,17.2617188 L18.25,15.8554688 C18.6679708,15.8554688 18.9414056,15.8291018 19.0703125,15.7763672 C19.1992194,15.7236325 19.293945,15.6474614 19.3544922,15.5478516 C19.4150394,15.4482417 19.4462891,15.2792981 19.4482422,15.0410156 C19.4501953,14.8027332 19.4667967,14.3476596 19.4980469,13.6757812 C19.5175782,13.2695292 19.5703121,12.9443372 19.65625,12.7001953 C19.7421879,12.4560535 19.8564446,12.2490243 19.9990234,12.0791016 C20.1416023,11.9091788 20.3242176,11.7597663 20.546875,11.6308594 C20.2578111,11.4433584 20.0468757,11.2597665 19.9140625,11.0800781 C19.7304678,10.8222643 19.6054691,10.4941426 19.5390625,10.0957031 C19.4960935,9.82226426 19.4648438,9.22070777 19.4453125,8.29101562 C19.4414062,7.99804541 19.4150393,7.80273486 19.3662109,7.70507812 C19.3173826,7.60742139 19.2294928,7.53222683 19.1025391,7.47949219 C18.9755853,7.42675755 18.6914085,7.40039062 18.25,7.40039062 L18.25,6 L18.5605469,6 C19.0878933,6 19.4921861,6.04101521 19.7734375,6.12304688 C20.0546889,6.20507854 20.2910147,6.34472558 20.4824219,6.54199219 C20.6738291,6.7392588 20.8037106,6.98144388 20.8720703,7.26855469 C20.94043,7.5556655 20.9746094,8.00780941 20.9746094,8.625 C20.9746094,9.33984732 21.003906,9.80663953 21.0625,10.0253906 C21.1484379,10.3378922 21.279296,10.5615228 21.4550781,10.6962891 C21.6308603,10.8310554 21.8984357,10.908203 22.2578125,10.9277344 L22.2578125,12.3339844 Z" id="{-}" fill="#E96568"></path>
            </g>
        </g>
    </g>
</svg>