<svg viewBox="0 0 42 42" xmlns="http://www.w3.org/2000/svg" xmlns:xlink="http://www.w3.org/1999/xlink"><defs><path d="M6 11.005A2 2 0 0 1 8.004 9h22c.55 0 1.309.313 1.702.706l3.588 3.588c.39.39.706 1.157.706 1.7v16.009A1.998 1.998 0 0 1 34.008 33H7.992C6.892 33 6 32.103 6 30.995v-19.99z" id="a"/></defs><g fill="none" fill-rule="evenodd"><use fill="#1B1B1B" xlink:href="#a"/><path stroke="#E96568" stroke-width="2" d="M7 11.005v19.99A.998.998 0 0 0 7.992 32h26.016a.999.999 0 0 0 .992-.997V14.995c0-.28-.212-.793-.413-.994L31 10.413c-.205-.204-.708-.413-.994-.413H8.004A1 1 0 0 0 7 11.005z"/><path d="M13 21.334v-1.406c.285-.016.5-.059.645-.13a.936.936 0 0 0 .375-.354c.105-.166.177-.374.216-.624.032-.187.047-.513.047-.978 0-.758.035-1.286.106-1.585.07-.299.197-.54.38-.72.184-.183.452-.326.803-.432.239-.07.614-.105 1.125-.105h.31v1.4c-.433 0-.711.025-.834.074a.53.53 0 0 0-.273.222c-.058.1-.088.27-.088.513 0 .246-.017.713-.052 1.4-.02.387-.07.7-.153.94-.082.241-.186.44-.313.596a2.47 2.47 0 0 1-.583.486c.23.133.419.288.565.466.147.177.26.393.337.647.078.254.13.594.153 1.02.027.648.04 1.062.04 1.242 0 .258.032.437.094.539a.584.584 0 0 0 .285.231c.127.053.4.08.823.08v1.406h-.31c-.528 0-.932-.042-1.214-.126a1.644 1.644 0 0 1-.712-.42 1.478 1.478 0 0 1-.39-.723c-.066-.287-.099-.74-.099-1.356 0-.719-.031-1.186-.094-1.4-.085-.313-.215-.537-.39-.672-.173-.134-.44-.211-.799-.231zm15.258 0c-.285.016-.5.059-.645.129a.918.918 0 0 0-.372.354 1.725 1.725 0 0 0-.22.624c-.03.188-.046.512-.046.973 0 .758-.035 1.287-.103 1.588-.068.3-.194.542-.378.724-.183.181-.453.325-.808.43-.239.07-.614.106-1.125.106h-.311v-1.407c.418 0 .691-.026.82-.079a.572.572 0 0 0 .284-.228c.061-.1.092-.269.094-.507.002-.238.019-.693.05-1.365.02-.406.072-.732.158-.976.086-.244.2-.451.343-.62.143-.17.325-.32.548-.45-.29-.187-.5-.37-.633-.55-.184-.258-.309-.586-.375-.984-.043-.274-.074-.875-.094-1.805-.004-.293-.03-.488-.079-.586a.487.487 0 0 0-.263-.226c-.127-.052-.412-.079-.853-.079V15h.31c.528 0 .932.041 1.213.123a1.53 1.53 0 0 1 1.099 1.146c.068.287.103.739.103 1.356 0 .715.029 1.182.087 1.4.086.313.217.537.393.671.176.135.443.212.803.232v1.406z" fill="#E96568"/></g></svg>