<svg viewBox="0 0 42 42" xmlns="http://www.w3.org/2000/svg"><g fill="none" fill-rule="evenodd"><path d="M6 11.005A2 2 0 0 1 8.004 9h22c.55 0 1.309.313 1.702.706l3.588 3.588c.39.39.706 1.157.706 1.7v16.009A1.998 1.998 0 0 1 34.008 33H7.992C6.892 33 6 32.103 6 30.995v-19.99z" fill="#C45187"/><path d="M13.421 25.116c.824 0 1.52-.212 2.087-.637a2.64 2.64 0 0 0 1.045-1.705h-.983a1.816 1.816 0 0 1-.76 1.06c-.385.26-.848.39-1.389.39-.744 0-1.335-.285-1.772-.854-.437-.57-.655-1.34-.655-2.31 0-.973.217-1.745.652-2.314.435-.57 1.025-.854 1.77-.854.534 0 .994.146 1.38.437.387.292.645.689.774 1.19h.983a2.796 2.796 0 0 0-1.042-1.82c-.58-.466-1.279-.699-2.095-.699-1.053 0-1.885.363-2.498 1.09-.612.727-.918 1.717-.918 2.97 0 1.25.307 2.238.921 2.965.614.727 1.448 1.09 2.5 1.09zm8.794-2.9h2.336v-.796h-2.336v-2.336h-.795v2.336h-2.337v.795h2.337v2.337h.795v-2.337zm8.197 0h2.337v-.796h-2.337v-2.336h-.795v2.336h-2.336v.795h2.336v2.337h.795v-2.337z" fill="#FFF"/></g></svg>