<svg viewBox="0 0 42 42" xmlns="http://www.w3.org/2000/svg"><g fill="none" fill-rule="evenodd"><path d="M6 11.005A2 2 0 0 1 8.004 9h22c.55 0 1.309.313 1.702.706l3.588 3.588c.39.39.706 1.157.706 1.7v16.009A1.998 1.998 0 0 1 34.008 33H7.992C6.892 33 6 32.103 6 30.995v-19.99z" fill="#F5DA55"/><g transform="translate(12 14)"><path d="M5.32 3.073a1 1 0 1 0-1.64-1.146l-3.5 5a1 1 0 0 0 0 1.146l3.5 5a1 1 0 0 0 1.64-1.146L2.22 7.5l3.1-4.427zM15.536 2.132l-6.71 9.59a1 1 0 1 0 1.638 1.147l6.71-9.59a1 1 0 0 0-1.638-1.147z" fill="#121212"/><circle stroke="#121212" stroke-width="1.5" cx="15" cy="11" r="1.25"/><circle stroke="#121212" stroke-width="1.5" cx="11" cy="4" r="1.25"/></g></g></svg>