<?xml version="1.0" encoding="UTF-8"?>
<svg width="42px" height="42px" viewBox="0 0 42 42" version="1.1" xmlns="http://www.w3.org/2000/svg" xmlns:xlink="http://www.w3.org/1999/xlink">
    <!-- Generator: Sketch 44.1 (41455) - http://www.bohemiancoding.com/sketch -->
    <desc>Created with Sketch.</desc>
    <defs></defs>
    <g id="扩展名-(icons/extensions-5-10)" stroke="none" stroke-width="1" fill="none" fill-rule="evenodd">
        <g id="EJS">
            <g id="Group" transform="translate(6.000000, 9.000000)" fill="#F5DA55">
                <path d="M0,2.00494659 C0,0.897645164 0.889763236,0 2.00359486,0 L24.004543,0 C24.5543187,0 25.3127724,0.312772393 25.7057732,0.70577316 L29.2942268,4.29422684 C29.6840146,4.68401459 30,5.45092539 30,5.99477117 L30,22.0025781 C30,23.1057238 29.1021596,24 28.008383,24 L1.99161703,24 C0.891677316,24 0,23.1029738 0,21.9950534 L0,2.00494659 Z" id="Rectangle-3"></path>
            </g>
            <g id="Group-2" transform="translate(12.000000, 14.000000)">
                <path d="M5.31923192,3.07346234 C5.63594643,2.62101305 5.52591164,1.99748259 5.07346234,1.68076808 C4.62101305,1.36405357 3.99748259,1.47408836 3.68076808,1.92653766 L0.180768079,6.92653766 C-0.0602560265,7.27085781 -0.0602560265,7.72914219 0.180768079,8.07346234 L3.68076808,13.0734623 C3.99748259,13.5259116 4.62101305,13.6359464 5.07346234,13.3192319 C5.52591164,13.0025174 5.63594643,12.378987 5.31923192,11.9265377 L2.22065556,7.5 L5.31923192,3.07346234 Z" id="Path-11" fill="#121212"></path>
                <path d="M14.0604788,1.65852911 L10.0604788,12.6585291 C9.87173927,13.1775627 10.1394955,13.7513261 10.6585291,13.9400656 C11.1775627,14.1288051 11.7513261,13.8610488 11.9400656,13.3420152 L15.9400656,2.34201524 C16.1288051,1.82298166 15.8610488,1.24921823 15.3420152,1.06047875 C14.8229817,0.871739269 14.2492182,1.13949554 14.0604788,1.65852911 Z" id="Path-12" fill="#121212" transform="translate(13.000272, 7.500272) rotate(-345.000000) translate(-13.000272, -7.500272) "></path>
                <circle id="Oval" stroke="#121212" stroke-width="1.5" cx="15" cy="11" r="1.25"></circle>
                <circle id="Oval" stroke="#121212" stroke-width="1.5" cx="11" cy="4" r="1.25"></circle>
            </g>
        </g>
    </g>
</svg>