<svg viewBox="0 0 42 42" xmlns="http://www.w3.org/2000/svg"><g fill="none" fill-rule="evenodd"><path d="M6 11.005A2 2 0 0 1 8.004 9h22c.55 0 1.309.313 1.702.706l3.588 3.588c.39.39.706 1.157.706 1.7v16.009A1.998 1.998 0 0 1 34.008 33H7.992C6.892 33 6 32.103 6 30.995v-19.99z" fill="#3EAEDC"/><path d="M13 20.253v-3.21a.8.8 0 0 1 .667-.79l5.606-.947v4.947H13zm0 1.454v3.25a.8.8 0 0 0 .667.79l5.606.947v-4.987H13zm14-1.454v-5.306a.8.8 0 0 0-.933-.79l-5.34.903v5.193H27zm0 1.454v5.346a.8.8 0 0 1-.933.79l-5.34-.903v-5.233H27z" fill="#FFF"/></g></svg>