<?xml version="1.0" encoding="UTF-8"?>
<svg width="42px" height="42px" viewBox="0 0 42 42" version="1.1" xmlns="http://www.w3.org/2000/svg" xmlns:xlink="http://www.w3.org/1999/xlink">
    <!-- Generator: Sketch 44.1 (41455) - http://www.bohemiancoding.com/sketch -->
    <desc>Created with Sketch.</desc>
    <defs>
        <ellipse id="path-1" cx="5.36712567" cy="4.89742459" rx="4.9000354" ry="4.59625863"></ellipse>
        <ellipse id="path-2" cx="5.16330432" cy="4.6961063" rx="5.06197305" ry="4.66107069"></ellipse>
        <path d="M2.36194088,4.23023868 C2.08829488,5.95874903 2.3307961,6.77010573 3.08944453,6.66430879 C3.84809297,6.55851184 4.13894458,5.70869362 3.96199938,4.11485411 L2.36194088,4.23023868 Z" id="path-3"></path>
        <path d="M2.37032542,1.51897909 C1.17161418,1.51897909 0.95494885,2.15137311 0.596523752,2.461601 C0.238098655,2.77182889 -0.755718912,5.17413771 2.37032542,4.78545054 C5.49636974,4.39676337 4.9870785,3.46050688 4.9870785,2.67776659 C4.9870785,1.89502631 3.56903665,1.51897909 2.37032542,1.51897909 Z" id="path-4"></path>
        <path d="M1.34013783,1.75430141 C1.51412162,0.844107107 2.0045893,0.426546033 2.81154088,0.501618184 C3.61849246,0.576690334 3.95504002,0.994251408 3.82118357,1.75430141 C3.57864277,2.26836795 3.17061379,2.52540122 2.59709662,2.52540122 C2.02357944,2.52540122 1.60459318,2.26836795 1.34013783,1.75430141 Z" id="path-5"></path>
    </defs>
    <g id="扩展名-(icons/extensions-5-10)" stroke="none" stroke-width="1" fill="none" fill-rule="evenodd">
        <g id="Golang">
            <path d="M5,11.0049466 C5,9.89764516 5.88976324,9 7.00359486,9 L29.004543,9 C29.5543187,9 30.3127724,9.31277239 30.7057732,9.70577316 L34.2942268,13.2942268 C34.6840146,13.6840146 35,14.4509254 35,14.9947712 L35,31.0025781 C35,32.1057238 34.1021596,33 33.008383,33 L6.99161703,33 C5.89167732,33 5,32.1029738 5,30.9950534 L5,11.0049466 Z" id="Mask" fill="#3ADAE8"></path>
            <g id="Group-4" transform="translate(8.000000, 11.000000)">
                <g id="Oval-4">
                    <use fill="#FFFFFF" fill-rule="evenodd" xlink:href="#path-1"></use>
                    <ellipse stroke="#3C2E21" stroke-width="0.5" cx="5.36712567" cy="4.89742459" rx="5.1500354" ry="4.84625863"></ellipse>
                </g>
                <path d="M6.84911905,7.87336534 C6.12345579,7.87336534 5.53518949,7.35800069 5.53518949,6.72226617 C5.53518949,6.08653165 6.12345579,5.57116699 6.84911905,5.57116699 C7.57478232,5.57116699 8.16304862,6.08653165 8.16304862,6.72226617 C8.16304862,7.35800069 7.57478232,7.87336534 6.84911905,7.87336534 Z M6.65162842,7.16920977 C6.91045357,7.16920977 7.1202728,6.95821331 7.1202728,6.69793598 C7.1202728,6.43765865 6.91045357,6.22666219 6.65162842,6.22666219 C6.39280328,6.22666219 6.18298404,6.43765865 6.18298404,6.69793598 C6.18298404,6.95821331 6.39280328,7.16920977 6.65162842,7.16920977 Z" id="Combined-Shape" fill="#000000"></path>
            </g>
            <g id="Group-5" transform="translate(21.000000, 11.000000)">
                <g id="Oval-4">
                    <use fill="#FFFFFF" fill-rule="evenodd" xlink:href="#path-2"></use>
                    <ellipse stroke="#3C2E21" stroke-width="0.5" cx="5.16330432" cy="4.6961063" rx="5.31197305" ry="4.91107069"></ellipse>
                </g>
                <path d="M7.16550348,6.5340093 C6.52589976,6.5340093 6.00739851,6.00733165 6.00739851,5.35764186 C6.00739851,4.70795206 6.52589976,4.18127441 7.16550348,4.18127441 C7.80510719,4.18127441 8.32360845,4.70795206 8.32360845,5.35764186 C8.32360845,6.00733165 7.80510719,6.5340093 7.16550348,6.5340093 Z M6.99143411,5.81439651 C7.21956406,5.81439651 7.40449993,5.59876837 7.40449993,5.33277758 C7.40449993,5.0667868 7.21956406,4.85115866 6.99143411,4.85115866 C6.76330416,4.85115866 6.5783683,5.0667868 6.5783683,5.33277758 C6.5783683,5.59876837 6.76330416,5.81439651 6.99143411,5.81439651 Z" id="Combined-Shape" fill="#000000"></path>
            </g>
            <g id="Group-6" transform="translate(17.000000, 21.000000)">
                <g id="Path-20">
                    <use fill="#D7C9B0" fill-rule="evenodd" xlink:href="#path-3"></use>
                    <path stroke="#3C2E21" stroke-width="0.5" d="M2.14604369,3.99515842 L4.18393191,3.84820077 L4.21047284,4.08726904 C4.40053775,5.79928462 4.06463542,6.78073326 3.12397402,6.91191274 C2.11319251,7.05287078 1.81821283,6.06593247 2.11501608,4.19114722 L2.14604369,3.99515842 Z"></path>
                </g>
                <path d="M2.94563795,4.13212293 C3.30856072,4.69949515 3.3924246,5.37615324 3.19722961,6.1620972" id="Path-17" stroke="#3C2E21" stroke-width="0.5" stroke-linecap="round" stroke-linejoin="round"></path>
                <g id="Path-19">
                    <use fill="#D7C9B0" fill-rule="evenodd" xlink:href="#path-4"></use>
                    <path stroke="#3C2E21" stroke-width="0.5" d="M2.37032542,1.26897909 C3.91290443,1.26897909 5.2370785,1.77269449 5.2370785,2.67776659 C5.2370785,2.74906893 5.24056266,2.80837698 5.25171549,2.95270821 C5.26090773,3.07166692 5.26460285,3.12845404 5.26671089,3.19923383 C5.2971053,4.2197601 4.59672474,4.76054883 2.40117247,5.03354016 C0.898416977,5.22039028 0.0735961889,4.7959038 -0.0699148648,3.92632715 C-0.166866143,3.33887017 0.119856723,2.54353295 0.432913788,2.27257249 C0.465672726,2.24421862 0.500308962,2.20937599 0.54228268,2.162993 C0.559319367,2.14416663 0.716469171,1.96244707 0.771367376,1.90358508 C1.16499237,1.4815394 1.619187,1.26897909 2.37032542,1.26897909 Z"></path>
                </g>
                <g id="Path-18">
                    <use fill="#767363" fill-rule="evenodd" xlink:href="#path-5"></use>
                    <path stroke="#3C2E21" stroke-width="0.5" d="M1.09458366,1.70736369 C1.2916066,0.676640299 1.89253107,0.165041522 2.83469883,0.252693076 C3.78416435,0.341023553 4.22713709,0.890628408 4.04728186,1.86097643 C3.76333938,2.46279408 3.26708933,2.77540122 2.59709662,2.77540122 C1.92968448,2.77540122 1.42502332,2.46580943 1.11782965,1.86866517 L1.09458366,1.70736369 Z"></path>
                </g>
            </g>
        </g>
    </g>
</svg>