<svg viewBox="0 0 42 42" xmlns="http://www.w3.org/2000/svg" xmlns:xlink="http://www.w3.org/1999/xlink"><defs><ellipse id="a" cx="5.367" cy="4.897" rx="4.9" ry="4.596"/><ellipse id="b" cx="5.163" cy="4.696" rx="5.062" ry="4.661"/><path d="M2.362 4.23c-.274 1.729-.031 2.54.727 2.434.76-.105 1.05-.955.873-2.55l-1.6.116z" id="c"/><path d="M2.37 1.519c-1.198 0-1.415.632-1.773.943-.359.31-1.353 2.712 1.773 2.323 3.126-.388 2.617-1.324 2.617-2.107 0-.783-1.418-1.159-2.617-1.159z" id="d"/><path d="M1.34 1.754C1.514.844 2.005.427 2.812.502c.806.075 1.143.492 1.01 1.252-.243.514-.651.771-1.225.771-.573 0-.992-.257-1.257-.77z" id="e"/></defs><g fill="none" fill-rule="evenodd"><path d="M5 11.005A2 2 0 0 1 7.004 9h22c.55 0 1.309.313 1.702.706l3.588 3.588c.39.39.706 1.157.706 1.7v16.009A1.998 1.998 0 0 1 33.008 33H6.992C5.892 33 5 32.103 5 30.995v-19.99z" fill="#3ADAE8"/><g transform="translate(8 11)"><use fill="#FFF" xlink:href="#a"/><ellipse stroke="#3C2E21" stroke-width=".5" cx="5.367" cy="4.897" rx="5.15" ry="4.846"/></g><path d="M14.85 18.873c-.727 0-1.315-.515-1.315-1.15 0-.636.588-1.152 1.314-1.152.726 0 1.314.516 1.314 1.151 0 .636-.588 1.151-1.314 1.151zm-.198-.704a.47.47 0 0 0 .468-.471.47.47 0 0 0-.468-.471.47.47 0 0 0-.469.47c0 .261.21.472.469.472z" fill="#000"/><g transform="translate(21 11)"><use fill="#FFF" xlink:href="#b"/><ellipse stroke="#3C2E21" stroke-width=".5" cx="5.163" cy="4.696" rx="5.312" ry="4.911"/></g><path d="M28.166 17.534c-.64 0-1.159-.527-1.159-1.176 0-.65.519-1.177 1.159-1.177s1.158.527 1.158 1.177-.519 1.176-1.158 1.176zm-.175-.72c.229 0 .413-.215.413-.481s-.184-.482-.413-.482c-.228 0-.413.216-.413.482s.185.481.413.481z" fill="#000"/><g><g transform="translate(17 21)"><use fill="#D7C9B0" xlink:href="#c"/><path stroke="#3C2E21" stroke-width=".5" d="M2.146 3.995l2.038-.147.026.24c.19 1.711-.145 2.693-1.086 2.824-1.01.14-1.306-.846-1.009-2.72l.031-.197z"/></g><path d="M19.946 25.132c.363.567.446 1.244.251 2.03" stroke="#3C2E21" stroke-width=".5" stroke-linecap="round" stroke-linejoin="round"/><g transform="translate(17 21)"><use fill="#D7C9B0" xlink:href="#d"/><path stroke="#3C2E21" stroke-width=".5" d="M2.37 1.269c1.543 0 2.867.504 2.867 1.409 0 .071.004.13.015.275.009.119.013.175.015.246.03 1.02-.67 1.562-2.866 1.835C.898 5.22.074 4.796-.069 3.926-.168 3.34.12 2.544.432 2.273c.033-.029.067-.064.11-.11.016-.019.173-.2.228-.26.394-.421.848-.634 1.6-.634z"/></g><g transform="translate(17 21)"><use fill="#767363" xlink:href="#e"/><path stroke="#3C2E21" stroke-width=".5" d="M1.095 1.707C1.292.677 1.893.165 2.835.253 3.785.34 4.227.89 4.047 1.86c-.284.602-.78.914-1.45.914-.667 0-1.172-.31-1.48-.906l-.022-.162z"/></g></g></g></svg>