<?xml version="1.0" encoding="UTF-8"?>
<svg width="42px" height="42px" viewBox="0 0 42 42" version="1.1" xmlns="http://www.w3.org/2000/svg" xmlns:xlink="http://www.w3.org/1999/xlink">
    <!-- Generator: Sketch 44.1 (41455) - http://www.bohemiancoding.com/sketch -->
    <desc>Created with Sketch.</desc>
    <defs></defs>
    <g id="扩展名-(icons/extensions-5-10)" stroke="none" stroke-width="1" fill="none" fill-rule="evenodd">
        <g id="H">
            <g id="Group" transform="translate(6.000000, 9.000000)">
                <path d="M0,2.00494659 C0,0.897645164 0.889763236,0 2.00359486,0 L24.004543,0 C24.5543187,0 25.3127724,0.312772393 25.7057732,0.70577316 L29.2942268,4.29422684 C29.6840146,4.68401459 30,5.45092539 30,5.99477117 L30,22.0025781 C30,23.1057238 29.1021596,24 28.008383,24 L1.99161703,24 C0.891677316,24 0,23.1029738 0,21.9950534 L0,2.00494659 Z" id="Rectangle-3" fill="#006093"></path>
                <path d="M11,18.2363281 L12.5117188,18.2363281 L12.5117188,12.6289062 C12.5117188,11.8261679 12.7373024,11.1801782 13.1884766,10.690918 C13.6396507,10.2016577 14.2900348,9.95703125 15.1396484,9.95703125 C15.8544958,9.95703125 16.3979474,10.1665018 16.7700195,10.5854492 C17.1420917,11.0043966 17.328125,11.6328083 17.328125,12.4707031 L17.328125,18.2363281 L18.8398438,18.2363281 L18.8398438,12.1015625 C18.8398438,10.9882757 18.5454131,10.1254913 17.956543,9.51318359 C17.3676728,8.90087584 16.5722706,8.59472656 15.5703125,8.59472656 C14.8437464,8.59472656 14.2358423,8.74120947 13.746582,9.03417969 C13.2573218,9.3271499 12.8925793,9.73437239 12.6523438,10.2558594 L12.5117188,10.2558594 L12.5117188,5 L11,5 L11,18.2363281 Z" id="h" fill="#FFFFFF"></path>
            </g>
        </g>
    </g>
</svg>