<svg viewBox="0 0 42 42" xmlns="http://www.w3.org/2000/svg"><g fill="none" fill-rule="evenodd"><path d="M6 11.005A2 2 0 0 1 8.004 9h22c.55 0 1.309.313 1.702.706l3.588 3.588c.39.39.706 1.157.706 1.7v16.009A1.998 1.998 0 0 1 34.008 33H7.992C6.892 33 6 32.103 6 30.995v-19.99z" fill="#006093"/><path d="M17 27.236h1.512V21.63c0-.803.225-1.449.676-1.938.452-.49 1.102-.734 1.952-.734.714 0 1.258.21 1.63.628.372.42.558 1.048.558 1.886v5.765h1.512v-6.134c0-1.114-.295-1.977-.883-2.589-.59-.612-1.385-.918-2.387-.918-.726 0-1.334.146-1.823.44-.49.292-.854.7-1.095 1.22h-.14V14H17v13.236z" fill="#FFF"/></g></svg>