<svg viewBox="0 0 42 42" xmlns="http://www.w3.org/2000/svg"><g fill="none" fill-rule="evenodd"><path d="M6 11.005A2 2 0 0 1 8.004 9h22c.55 0 1.309.313 1.702.706l3.588 3.588c.39.39.706 1.157.706 1.7v16.009A1.998 1.998 0 0 1 34.008 33H7.992C6.892 33 6 32.103 6 30.995v-19.99z" fill="#9F3F6C"/><path d="M10 25.089h.924v-3.427c0-.49.138-.885.413-1.184.276-.3.674-.449 1.193-.449.437 0 .769.128.996.384.228.256.341.64.341 1.152v3.524h.924v-3.75c0-.68-.18-1.207-.54-1.58-.36-.375-.846-.562-1.458-.562-.444 0-.816.09-1.115.268a1.66 1.66 0 0 0-.668.747h-.086V17H10v8.089zm10.571-2.718h2.337v-.795H20.57V19.24h-.795v2.336H17.44v.795h2.336v2.337h.795V22.37zm8.133 0h2.337v-.795h-2.337V19.24h-.795v2.336h-2.336v.795h2.336v2.337h.795V22.37z" fill="#FFF"/></g></svg>