<?xml version="1.0" encoding="UTF-8"?>
<svg width="42px" height="42px" viewBox="0 0 42 42" version="1.1" xmlns="http://www.w3.org/2000/svg" xmlns:xlink="http://www.w3.org/1999/xlink">
    <!-- Generator: Sketch 44.1 (41455) - http://www.bohemiancoding.com/sketch -->
    <desc>Created with Sketch.</desc>
    <defs></defs>
    <g id="扩展名-(icons/extensions-5-10)" stroke="none" stroke-width="1" fill="none" fill-rule="evenodd">
        <g id="H++">
            <g id="Group" transform="translate(6.000000, 9.000000)">
                <path d="M0,2.00494659 C0,0.897645164 0.889763236,0 2.00359486,0 L24.004543,0 C24.5543187,0 25.3127724,0.312772393 25.7057732,0.70577316 L29.2942268,4.29422684 C29.6840146,4.68401459 30,5.45092539 30,5.99477117 L30,22.0025781 C30,23.1057238 29.1021596,24 28.008383,24 L1.99161703,24 C0.891677316,24 0,23.1029738 0,21.9950534 L0,2.00494659 Z" id="Rectangle-3" fill="#9F3F6C"></path>
                <path d="M4,16.0888672 L4.92382812,16.0888672 L4.92382812,12.6621094 C4.92382812,12.171547 5.06168482,11.7767756 5.33740234,11.4777832 C5.61311987,11.1787908 6.01057683,11.0292969 6.52978516,11.0292969 C6.9666363,11.0292969 7.29874561,11.1573067 7.52612305,11.4133301 C7.75350049,11.6693535 7.8671875,12.0533829 7.8671875,12.5654297 L7.8671875,16.0888672 L8.79101562,16.0888672 L8.79101562,12.3398438 C8.79101562,11.6595018 8.61108578,11.1322447 8.2512207,10.7580566 C7.89135562,10.3838686 7.4052765,10.1967773 6.79296875,10.1967773 C6.34895611,10.1967773 5.97745918,10.2862947 5.6784668,10.465332 C5.37947442,10.6443694 5.15657625,10.8932276 5.00976562,11.2119141 L4.92382812,11.2119141 L4.92382812,8 L4,8 L4,16.0888672 Z M14.5712887,13.3710938 L16.9077145,13.3710938 L16.9077145,12.5761719 L14.5712887,12.5761719 L14.5712887,10.2397461 L13.7763668,10.2397461 L13.7763668,12.5761719 L11.439941,12.5761719 L11.439941,13.3710938 L13.7763668,13.3710938 L13.7763668,15.7075195 L14.5712887,15.7075195 L14.5712887,13.3710938 Z M22.7041008,13.3710938 L25.0405266,13.3710938 L25.0405266,12.5761719 L22.7041008,12.5761719 L22.7041008,10.2397461 L21.909179,10.2397461 L21.909179,12.5761719 L19.5727532,12.5761719 L19.5727532,13.3710938 L21.909179,13.3710938 L21.909179,15.7075195 L22.7041008,15.7075195 L22.7041008,13.3710938 Z" id="h++" fill="#FFFFFF"></path>
            </g>
        </g>
    </g>
</svg>