<?xml version="1.0" encoding="UTF-8"?>
<svg width="42px" height="42px" viewBox="0 0 42 42" version="1.1" xmlns="http://www.w3.org/2000/svg" xmlns:xlink="http://www.w3.org/1999/xlink">
    <!-- Generator: Sketch 44.1 (41455) - http://www.bohemiancoding.com/sketch -->
    <desc>Created with Sketch.</desc>
    <defs>
        <path d="M0,2.00494659 C0,0.897645164 0.889763236,0 2.00359486,0 L24.004543,0 C24.5543187,0 25.3127724,0.312772393 25.7057732,0.70577316 L29.2942268,4.29422684 C29.6840146,4.68401459 30,5.45092539 30,5.99477117 L30,22.0025781 C30,23.1057238 29.1021596,24 28.008383,24 L1.99161703,24 C0.891677316,24 0,23.1029738 0,21.9950534 L0,2.00494659 Z" id="path-1"></path>
    </defs>
    <g id="扩展名-(icons/extensions-5-10)" stroke="none" stroke-width="1" fill="none" fill-rule="evenodd">
        <g id="HTML">
            <g id="Group" transform="translate(6.000000, 9.000000)">
                <g id="Mask">
                    <use fill="#1B1B1B" fill-rule="evenodd" xlink:href="#path-1"></use>
                    <path stroke="#EB4A2E" stroke-width="2" d="M1,2.00494659 L1,21.9950534 C1,22.5519156 1.44520033,23 1.99161703,23 L28.008383,23 C28.5518298,23 29,22.5514822 29,22.0025781 L29,5.99477117 C29,5.71418799 28.7879905,5.20220404 28.5871201,5.00133362 L24.9986664,1.41287994 C24.7943372,1.20855074 24.2907084,1 24.004543,1 L2.00359486,1 C1.44527569,1 1,1.44669671 1,2.00494659 Z"></path>
                </g>
                <path d="M9.31923192,8.07346234 L6.22065556,12.5 L9.31923192,16.9265377 C9.63594643,17.378987 9.52591164,18.0025174 9.07346234,18.3192319 C8.62101305,18.6359464 7.99748259,18.5259116 7.68076808,18.0734623 L4.18076808,13.0734623 C3.93974397,12.7291422 3.93974397,12.2708578 4.18076808,11.9265377 L7.68076808,6.92653766 C7.99748259,6.47408836 8.62101305,6.36405357 9.07346234,6.68076808 C9.52591164,6.99748259 9.63594643,7.62101305 9.31923192,8.07346234 Z M21.1807681,16.9265377 L24.2793444,12.5 L21.1807681,8.07346234 C20.8640536,7.62101305 20.9740884,6.99748259 21.4265377,6.68076808 C21.878987,6.36405357 22.5025174,6.47408836 22.8192319,6.92653766 L26.3192319,11.9265377 C26.560256,12.2708578 26.560256,12.7291422 26.3192319,13.0734623 L22.8192319,18.0734623 C22.5025174,18.5259116 21.878987,18.6359464 21.4265377,18.3192319 C20.9740884,18.0025174 20.8640536,17.378987 21.1807681,16.9265377 Z M16.0602066,6.65825694 C16.2489461,6.13922336 16.8227095,5.87146709 17.3417431,6.06020658 C17.8607766,6.24894606 18.1285329,6.82270949 17.9397934,7.34174306 L13.9397934,18.3417431 C13.7510539,18.8607766 13.1772905,19.1285329 12.6582569,18.9397934 C12.1392234,18.7510539 11.8714671,18.1772905 12.0602066,17.6582569 L16.0602066,6.65825694 Z" id="Combined-Shape" fill="#EB4A2E" fill-rule="nonzero"></path>
            </g>
        </g>
    </g>
</svg>