<svg viewBox="0 0 42 42" xmlns="http://www.w3.org/2000/svg" xmlns:xlink="http://www.w3.org/1999/xlink"><defs><path d="M0 2.005A2 2 0 0 1 2.004 0h22c.55 0 1.309.313 1.702.706l3.588 3.588c.39.39.706 1.157.706 1.7v16.009A1.998 1.998 0 0 1 28.008 24H1.992C.892 24 0 23.103 0 21.995V2.005z" id="a"/></defs><g fill="none" fill-rule="evenodd"><g transform="translate(6 9)"><use fill="#1B1B1B" xlink:href="#a"/><path stroke="#EB4A2E" stroke-width="2" d="M1 2.005A1 1 0 0 1 2.004 1h22c.287 0 .79.209.995.413L28.587 5c.201.201.413.713.413.994v16.008a.999.999 0 0 1-.992.997H1.992A.998.998 0 0 1 1 21.995V2.005z"/></g><path d="M15.32 17.073l-3.1 4.427 3.1 4.427a1 1 0 1 1-1.64 1.146l-3.5-5a1 1 0 0 1 0-1.146l3.5-5a1 1 0 1 1 1.64 1.146zm11.86 8.854l3.1-4.427-3.1-4.427a1 1 0 0 1 1.64-1.146l3.5 5a1 1 0 0 1 0 1.146l-3.5 5a1 1 0 1 1-1.64-1.146zm-5.12-10.269a1 1 0 1 1 1.88.684l-4 11a1 1 0 0 1-1.88-.684l4-11z" fill="#EB4A2E" fill-rule="nonzero"/></g></svg>