<?xml version="1.0" encoding="UTF-8"?>
<svg width="42px" height="42px" viewBox="0 0 42 42" version="1.1" xmlns="http://www.w3.org/2000/svg" xmlns:xlink="http://www.w3.org/1999/xlink">
    <!-- Generator: Sketch 44.1 (41455) - http://www.bohemiancoding.com/sketch -->
    <desc>Created with Sketch.</desc>
    <defs></defs>
    <g id="扩展名-(icons/extensions-5-10)" stroke="none" stroke-width="1" fill="none" fill-rule="evenodd">
        <g id="JavaScript">
            <g id="Group" transform="translate(6.000000, 9.000000)">
                <path d="M0,2.00494659 C0,0.897645164 0.889763236,0 2.00359486,0 L24.004543,0 C24.5543187,0 25.3127724,0.312772393 25.7057732,0.70577316 L29.2942268,4.29422684 C29.6840146,4.68401459 30,5.45092539 30,5.99477117 L30,22.0025781 C30,23.1057238 29.1021596,24 28.008383,24 L1.99161703,24 C0.891677316,24 0,23.1029738 0,21.9950534 L0,2.00494659 Z" id="Rectangle-3" fill="#F5DA55"></path>
                <path d="M10.552,5.148 L10.552,13.842 C10.552,14.904 10.354,15.678 9.976,16.164 C9.58,16.668 8.95,16.938 8.086,16.938 C6.52,16.938 5.746,16.056 5.746,14.328 L5.746,13.896 L4.27,13.896 L4.27,14.346 C4.27,15.606 4.594,16.578 5.278,17.262 C5.926,17.91 6.844,18.252 8.05,18.252 C9.472,18.252 10.516,17.856 11.164,17.064 C11.74,16.344 12.028,15.3 12.028,13.896 L12.028,5.148 L10.552,5.148 Z M19.001714,8.442 C17.957714,8.442 17.093714,8.676 16.445714,9.144 C15.743714,9.612 15.401714,10.224 15.401714,11.016 C15.401714,11.808 15.743714,12.402 16.463714,12.834 C16.895714,13.122 17.669714,13.392 18.767714,13.662 C19.775714,13.914 20.441714,14.112 20.747714,14.256 C21.323714,14.544 21.629714,14.94 21.629714,15.462 C21.629714,16.506 20.783714,17.046 19.127714,17.046 C18.335714,17.046 17.741714,16.902 17.345714,16.614 C16.949714,16.29 16.679714,15.768 16.571714,15.03 L15.167714,15.03 C15.383714,17.172 16.715714,18.252 19.163714,18.252 C21.791714,18.252 23.105714,17.28 23.105714,15.372 C23.105714,14.562 22.727714,13.932 21.989714,13.464 C21.503714,13.158 20.711714,12.87 19.595714,12.6 C18.659714,12.348 18.011714,12.15 17.669714,11.988 C17.129714,11.718 16.877714,11.376 16.877714,10.98 C16.877714,10.566 17.075714,10.242 17.471714,10.008 C17.831714,9.756 18.335714,9.648 18.983714,9.648 C19.721714,9.648 20.297714,9.792 20.693714,10.08 C21.053714,10.332 21.287714,10.764 21.413714,11.34 L22.817714,11.34 C22.565714,9.396 21.305714,8.442 19.001714,8.442 Z" id="Js" fill="#121212"></path>
            </g>
        </g>
    </g>
</svg>