<svg viewBox="0 0 42 42" xmlns="http://www.w3.org/2000/svg"><g fill="none" fill-rule="evenodd"><path d="M6 11.005A2 2 0 0 1 8.004 9h22c.55 0 1.309.313 1.702.706l3.588 3.588c.39.39.706 1.157.706 1.7v16.009A1.998 1.998 0 0 1 34.008 33H7.992C6.892 33 6 32.103 6 30.995v-19.99z" fill="#F8E018"/><path d="M16.552 14.148v8.694c0 1.062-.198 1.836-.576 2.322-.396.504-1.026.774-1.89.774-1.566 0-2.34-.882-2.34-2.61v-.432H10.27v.45c0 1.26.324 2.232 1.008 2.916.648.648 1.566.99 2.772.99 1.422 0 2.466-.396 3.114-1.188.576-.72.864-1.764.864-3.168v-8.748h-1.476zm8.45 3.294c-1.044 0-1.908.234-2.556.702-.702.468-1.044 1.08-1.044 1.872s.342 1.386 1.062 1.818c.432.288 1.206.558 2.304.828 1.008.252 1.674.45 1.98.594.576.288.882.684.882 1.206 0 1.044-.846 1.584-2.502 1.584-.792 0-1.386-.144-1.782-.432-.396-.324-.666-.846-.774-1.584h-1.404c.216 2.142 1.548 3.222 3.996 3.222 2.628 0 3.942-.972 3.942-2.88 0-.81-.378-1.44-1.116-1.908-.486-.306-1.278-.594-2.394-.864-.936-.252-1.584-.45-1.926-.612-.54-.27-.792-.612-.792-1.008 0-.414.198-.738.594-.972.36-.252.864-.36 1.512-.36.738 0 1.314.144 1.71.432.36.252.594.684.72 1.26h1.404c-.252-1.944-1.512-2.898-3.816-2.898z" fill="#383838"/></g></svg>