<svg viewBox="0 0 42 42" xmlns="http://www.w3.org/2000/svg" xmlns:xlink="http://www.w3.org/1999/xlink"><defs><path d="M0 2.005A2 2 0 0 1 2.004 0h22c.55 0 1.309.313 1.702.706l3.588 3.588c.39.39.706 1.157.706 1.7v16.009A1.998 1.998 0 0 1 28.008 24H1.992C.892 24 0 23.103 0 21.995V2.005z" id="a"/><linearGradient x1="48.288%" y1="50%" y2="97.593%" id="d"><stop stop-opacity="0" offset="0%"/><stop offset="100%"/></linearGradient><path d="M23.203 3.203c-.388-.388-1.152-.753-1.699-.814L0 0h25l5 5v19L3.495 21.59a.928.928 0 0 1-.846-1.073L4.85 5.983c.083-.543.15-.533.15.024v11.986C5 18.55 5.455 19 5.992 19h18.016c.548 0 1.066-.441 1.156-.982l1.672-10.036c.09-.542-.16-1.306-.54-1.685l-3.093-3.094z" id="c"/><linearGradient x1="0%" y1="0%" x2="48.483%" y2="50%" id="f"><stop offset="0%"/><stop stop-opacity="0" offset="100%"/></linearGradient><path d="M23.203 3.203c-.388-.388-1.152-.753-1.699-.814L0 0v24h30L3.495 21.59a.928.928 0 0 1-.846-1.073L4.85 5.983C4.933 5.44 5.45 5 6.007 5h12.986c.556 0 1.32.313 1.713.706l3.588 3.588c.39.39.706 1.152.706 1.704v7.004c0 .551.074.557.164.016l1.672-10.036c.09-.542-.16-1.306-.54-1.685l-3.093-3.094z" id="e"/></defs><g fill="none" fill-rule="evenodd"><g transform="translate(6 9)"><mask id="b" fill="#fff"><use xlink:href="#a"/></mask><g mask="url(#b)"><use fill="#97C4FF" xlink:href="#c"/><use fill-opacity=".5" fill="url(#d)" xlink:href="#c"/></g><g mask="url(#b)"><use fill="#97C4FF" xlink:href="#e"/><use fill-opacity=".5" fill="url(#f)" xlink:href="#e"/></g></g><path d="M11 15.007c0-.556.449-1.007 1.007-1.007h12.986c.556 0 1.32.313 1.713.706l3.588 3.588c.39.39.706 1.152.706 1.704v7.004c0 .551-.455.998-.992.998H11.992A.999.999 0 0 1 11 26.993V15.007z" fill="#000" opacity=".5"/></g></svg>