<svg viewBox="0 0 42 42" xmlns="http://www.w3.org/2000/svg"><g fill="none" fill-rule="evenodd"><path d="M6 11.005A2 2 0 0 1 8.004 9h22c.55 0 1.309.313 1.702.706l3.588 3.588c.39.39.706 1.157.706 1.7v16.009A1.998 1.998 0 0 1 34.008 33H7.992C6.892 33 6 32.103 6 30.995v-19.99z" fill="#4D3DF4"/><path d="M14.277 28.255H10.88V22H10v7.046h4.277v-.791zm6.578-4.473h-.84v3.115c0 .463-.122.824-.368 1.084-.246.26-.602.391-1.067.391-.42 0-.723-.113-.91-.34-.188-.226-.281-.575-.281-1.047v-3.203h-.84v3.408c0 .622.152 1.102.456 1.44.305.34.751.509 1.34.509.404 0 .744-.08 1.021-.24.277-.16.48-.385.61-.678h.079v.825h.8v-5.264zm4.23 4.62c.433 0 .792-.127 1.076-.38.285-.251.428-.565.428-.939V26.6l-1.416.092c-.769.052-1.153.339-1.153.86 0 .267.101.475.303.625.202.15.456.224.762.224zm-.156.737c-.512 0-.936-.141-1.272-.423-.337-.281-.506-.663-.506-1.145 0-.963.64-1.482 1.92-1.557l1.518-.093v-.479c0-.67-.397-1.005-1.192-1.005-.315 0-.578.056-.786.17a.78.78 0 0 0-.4.484h-.85c.055-.423.274-.763.654-1.018.381-.256.852-.384 1.412-.384.64 0 1.135.156 1.482.467.346.31.52.74.52 1.286v3.604h-.801v-.776h-.078a1.73 1.73 0 0 1-.674.644c-.28.15-.596.225-.947.225z" fill="#FFF"/><circle fill="#FFF" cx="27.5" cy="15.5" r="3.5"/></g></svg>