<svg viewBox="0 0 42 42" xmlns="http://www.w3.org/2000/svg"><g fill="none" fill-rule="evenodd"><path d="M6 11.005A2 2 0 0 1 8.004 9h22c.55 0 1.309.313 1.702.706l3.588 3.588c.39.39.706 1.157.706 1.7v16.009A1.998 1.998 0 0 1 34.008 33H7.992C6.892 33 6 32.103 6 30.995v-19.99z" fill="#AB0119"/><path d="M12.478 24.263V18.88a.3.3 0 0 0-.3-.3h-1.226a.3.3 0 0 0-.3.3v5.384H7V17h7v7.263h-1.522zM15.826 17h7v7.263h-3.5V26h-3.5v-9zm15.522 7.263h-1.522V18.88a.3.3 0 0 0-.3-.3H28.3a.3.3 0 0 0-.3.3v5.384h-3.348V17H35v7.263h-1.826V18.88a.3.3 0 0 0-.3-.3h-1.226a.3.3 0 0 0-.3.3v5.384zM19.174 18.88v3.49H21v-3.49a.3.3 0 0 0-.3-.3h-1.226a.3.3 0 0 0-.3.3z" fill="#FFF"/></g></svg>