<?xml version="1.0" encoding="UTF-8"?>
<svg width="42px" height="42px" viewBox="0 0 42 42" version="1.1" xmlns="http://www.w3.org/2000/svg" xmlns:xlink="http://www.w3.org/1999/xlink">
    <!-- Generator: Sketch 44.1 (41455) - http://www.bohemiancoding.com/sketch -->
    <desc>Created with Sketch.</desc>
    <defs></defs>
    <g id="扩展名-(icons/extensions-5-10)" stroke="none" stroke-width="1" fill="none" fill-rule="evenodd">
        <g id="NPM">
            <path d="M6,11.0049466 C6,9.89764516 6.88976324,9 8.00359486,9 L30.004543,9 C30.5543187,9 31.3127724,9.31277239 31.7057732,9.70577316 L35.2942268,13.2942268 C35.6840146,13.6840146 36,14.4509254 36,14.9947712 L36,31.0025781 C36,32.1057238 35.1021596,33 34.008383,33 L7.99161703,33 C6.89167732,33 6,32.1029738 6,30.9950534 L6,11.0049466 Z" id="Mask" fill="#AB0119"></path>
            <path d="M12.4782609,24.2631579 L12.4782609,18.8789474 C12.4782609,18.7132619 12.3439463,18.5789474 12.1782609,18.5789474 L12.1782609,18.5789474 L10.9521739,18.5789474 C10.7864885,18.5789474 10.6521739,18.7132619 10.6521739,18.8789474 L10.6521739,24.2631579 L7,24.2631579 L7,17 L14,17 L14,24.2631579 L12.4782609,24.2631579 Z M15.826087,17 L22.826087,17 L22.826087,24.2631579 L19.326087,24.2631579 L19.326087,26 L15.826087,26 L15.826087,17 Z M31.3478261,24.2631579 L29.826087,24.2631579 L29.826087,18.8789474 C29.826087,18.7132619 29.6917724,18.5789474 29.526087,18.5789474 L28.3,18.5789474 L28.3,18.5789474 C28.1343146,18.5789474 28,18.7132619 28,18.8789474 L28,24.2631579 L24.6521739,24.2631579 L24.6521739,17 L35,17 L35,24.2631579 L33.173913,24.2631579 L33.173913,18.8789474 C33.173913,18.7132619 33.0395985,18.5789474 32.873913,18.5789474 L31.6478261,18.5789474 L31.6478261,18.5789474 C31.4821407,18.5789474 31.3478261,18.7132619 31.3478261,18.8789474 L31.3478261,24.2631579 Z M19.173913,18.8789474 L19.173913,22.3684211 L21,22.3684211 L21,18.8789474 C21,18.7132619 20.8656854,18.5789474 20.7,18.5789474 L19.473913,18.5789474 C19.3082276,18.5789474 19.173913,18.7132619 19.173913,18.8789474 Z" id="Combined-Shape" fill="#FFFFFF"></path>
        </g>
    </g>
</svg>