<svg viewBox="0 0 42 42" xmlns="http://www.w3.org/2000/svg" xmlns:xlink="http://www.w3.org/1999/xlink"><defs><path d="M0 2.005A2 2 0 0 1 2.004 0h22c.55 0 1.309.313 1.702.706l3.588 3.588c.39.39.706 1.157.706 1.7v16.009A1.998 1.998 0 0 1 28.008 24H1.992C.892 24 0 23.103 0 21.995V2.005z" id="a"/></defs><g transform="translate(6 9)" fill="none" fill-rule="evenodd"><use fill="#002632" xlink:href="#a"/><path stroke="#00D3FF" stroke-width="2" d="M1 2.005A1 1 0 0 1 2.004 1h22c.287 0 .79.209.995.413L28.587 5c.201.201.413.713.413.994v16.008a.999.999 0 0 1-.992.997H1.992A.998.998 0 0 1 1 21.995V2.005z"/><path d="M1 16.5l6.316-6.767a.89.89 0 0 1 1.35.021L15.5 17.5l6.085-2.608c.505-.216 1.283-.137 1.738.178L29 19v4H1v-6.5z" fill="#00D3FF"/><circle fill="#00D3FF" cx="19.5" cy="7.5" r="2.5"/></g></svg>