<svg viewBox="0 0 42 42" xmlns="http://www.w3.org/2000/svg" xmlns:xlink="http://www.w3.org/1999/xlink"><defs><path d="M17.502 9H8.004A2 2 0 0 0 6 11.005v19.99C6 32.103 6.892 33 7.992 33H13v-8a5 5 0 0 1 5-5h6a3 3 0 0 0 3-3V9h-9.498z" id="a"/></defs><g fill="none" fill-rule="evenodd"><path d="M29.502 9h.503c.55 0 1.308.313 1.7.706l3.59 3.588c.389.39.705 1.157.705 1.7v16.009A1.998 1.998 0 0 1 34.008 33H15v-8a3 3 0 0 1 3-3h6a5 5 0 0 0 5-5V9h.502z" fill="#F7D54B"/><use fill="#3A78AC" xlink:href="#a"/></g></svg>