<svg viewBox="0 0 42 42" xmlns="http://www.w3.org/2000/svg" xmlns:xlink="http://www.w3.org/1999/xlink"><defs><path d="M0 2.005A2 2 0 0 1 2.004 0h22c.55 0 1.309.313 1.702.706l3.588 3.588c.39.39.706 1.157.706 1.7v16.009A1.998 1.998 0 0 1 28.008 24H1.992C.892 24 0 23.103 0 21.995V2.005z" id="a"/></defs><g fill="none" fill-rule="evenodd"><g transform="translate(6 9)"><mask id="b" fill="#fff"><use xlink:href="#a"/></mask><use fill="#FFF" xlink:href="#a"/><path d="M0 0h21v8a3 3 0 0 1-3 3h-6a5 5 0 0 0-5 5v8H0V0z" fill="#3A78AC" mask="url(#b)"/><path d="M9 0h21v8a3 3 0 0 1-3 3h-6a5 5 0 0 0-5 5v8H9V0z" fill="#F7D54B" mask="url(#b)" transform="rotate(180 19.5 12)"/></g><circle fill="#FFF" cx="21.5" cy="14.5" r="2.5"/><circle fill="#FFF" cx="20.5" cy="27.5" r="2.5"/></g></svg>