<?xml version="1.0" encoding="UTF-8"?>
<svg width="42px" height="42px" viewBox="0 0 42 42" version="1.1" xmlns="http://www.w3.org/2000/svg" xmlns:xlink="http://www.w3.org/1999/xlink">
    <!-- Generator: Sketch 44.1 (41455) - http://www.bohemiancoding.com/sketch -->
    <desc>Created with Sketch.</desc>
    <defs>
        <path d="M0,2.00494659 C0,0.897645164 0.889763236,0 2.00359486,0 L24.004543,0 C24.5543187,0 25.3127724,0.312772393 25.7057732,0.70577316 L29.2942268,4.29422684 C29.6840146,4.68401459 30,5.45092539 30,5.99477117 L30,22.0025781 C30,23.1057238 29.1021596,24 28.008383,24 L1.99161703,24 C0.891677316,24 0,23.1029738 0,21.9950534 L0,2.00494659 Z" id="path-1"></path>
    </defs>
    <g id="扩展名-(icons/extensions-5-10)" stroke="none" stroke-width="1" fill="none" fill-rule="evenodd">
        <g id="Sketch">
            <g id="Group" transform="translate(6.000000, 9.000000)">
                <mask id="mask-2" fill="white">
                    <use xlink:href="#path-1"></use>
                </mask>
                <use id="Mask" fill="#EA6C00" xlink:href="#path-1"></use>
                <g mask="url(#mask-2)">
                    <polygon id="Path-2" fill="#FDCA1A" points="0 0 6 6 21 6 25 0"></polygon>
                    <polygon id="Path-3" fill="#FDAD00" points="21 6 24 11 30 5 25 0"></polygon>
                    <polygon id="Path-4" fill="#EA6C00" points="24 11 24 18 30 24 30 5"></polygon>
                    <path d="M24,18 C24,18 30,24 30,24 C30,24 3.55271368e-15,24 3.55271368e-15,24 L6,18 L24,18 Z" id="Path-5" fill="#EA6C00"></path>
                    <polygon id="Path-6" fill="#FDAD00" points="0 0 0 24 6 18 6 6"></polygon>
                    <path d="M5,6.00684547 C5,5.45078007 5.44463086,5 6.00087166,5 L19.9991283,5 C20.5518945,5 21.2749362,5.34367025 21.625,5.78125 L24.375,9.21875 C24.720178,9.65022246 25,10.4463114 25,10.9975446 L25,18.0024554 C25,18.553384 24.5446944,19 24.0081969,19 L5.99180311,19 C5.44404538,19 5,18.5500512 5,17.9931545 L5,6.00684547 Z" id="Rectangle-3" fill="#FEEEB7"></path>
                </g>
            </g>
        </g>
    </g>
</svg>