<svg viewBox="0 0 42 42" xmlns="http://www.w3.org/2000/svg" xmlns:xlink="http://www.w3.org/1999/xlink"><defs><path d="M6 11.005A2 2 0 0 1 8.004 9h22c.55 0 1.309.313 1.702.706l3.588 3.588c.39.39.706 1.157.706 1.7v16.009A1.998 1.998 0 0 1 34.008 33H7.992C6.892 33 6 32.103 6 30.995v-19.99z" id="a"/></defs><g fill="none" fill-rule="evenodd"><use fill="#121212" xlink:href="#a"/><path stroke="#FF5538" stroke-width="2" d="M7 11.005v19.99A.998.998 0 0 0 7.992 32h26.016a.999.999 0 0 0 .992-.997V14.995c0-.28-.212-.793-.413-.994L31 10.413c-.205-.204-.708-.413-.994-.413H8.004A1 1 0 0 0 7 11.005z"/><path d="M20 22.784c-2.267-.54-5 1.148-5 3.916 0 .005.2 2.415 3.2 2.296 3.4-.135 6-2.81 6-5.267 0-3.118-1.533-4.591-1.933-7.022-.135-.816.499-1.62 1.133-1.62 1.067 0 1 1.35.267 2.295C24.8 17.922 26 16.707 26 15.52c0-.235-.437-1.622-2.8-1.513-1.467.068-3.6 1.35-3.6 4.456 0 2.249 1.333 3.398 1.333 6.077 0 2.07-2.39 3.218-2.733 3.106-1.867-.607.4-4.254 1.8-4.861z" fill="#FF5538"/></g></svg>