<svg viewBox="0 0 42 42" xmlns="http://www.w3.org/2000/svg" xmlns:xlink="http://www.w3.org/1999/xlink"><defs><path d="M1 3.005A2 2 0 0 1 3.004 1h22c.55 0 1.309.313 1.702.706l3.588 3.588c.39.39.706 1.157.706 1.7v16.009A1.998 1.998 0 0 1 29.008 25H2.992C1.892 25 1 24.103 1 22.995V3.005z" id="a"/></defs><g fill="none" fill-rule="evenodd"><g transform="translate(5 8)"><use fill="#121212" xlink:href="#a"/><path stroke="#F5B354" stroke-width="2" d="M2 3.005A1 1 0 0 1 3.004 2h22c.287 0 .79.209.995.413L29.587 6c.201.201.413.713.413.994v16.008a.999.999 0 0 1-.992.997H2.992A.998.998 0 0 1 2 22.995V3.005z"/></g><path d="M5 8h4v4H5V8zm0 22h4v4H5v-4zm28 0h4v4h-4v-4z" stroke="#F5B354" stroke-width="2" fill="#FFF"/></g></svg>