<?xml version="1.0" encoding="UTF-8"?>
<svg width="42px" height="42px" viewBox="0 0 42 42" version="1.1" xmlns="http://www.w3.org/2000/svg" xmlns:xlink="http://www.w3.org/1999/xlink">
    <!-- Generator: Sketch 44.1 (41455) - http://www.bohemiancoding.com/sketch -->
    <desc>Created with Sketch.</desc>
    <defs></defs>
    <g id="扩展名-(icons/extensions-5-10)" stroke="none" stroke-width="1" fill="none" fill-rule="evenodd">
        <g id="文本">
            <g id="Group" transform="translate(6.000000, 9.000000)">
                <path d="M0,2.00494659 C0,0.897645164 0.889763236,0 2.00359486,0 L24.004543,0 C24.5543187,0 25.3127724,0.312772393 25.7057732,0.70577316 L29.2942268,4.29422684 C29.6840146,4.68401459 30,5.45092539 30,5.99477117 L30,22.0025781 C30,23.1057238 29.1021596,24 28.008383,24 L1.99161703,24 C0.891677316,24 0,23.1029738 0,21.9950534 L0,2.00494659 Z" id="Rectangle-3" fill="#FFFFFF"></path>
                <path d="M4,5 C4,4.44771525 4.44748943,4 4.99850233,4 L16.0014977,4 C16.5529553,4 17,4.44386482 17,5 C17,5.55228475 16.5525106,6 16.0014977,6 L4.99850233,6 C4.44704472,6 4,5.55613518 4,5 Z M4,10 C4,9.44771525 4.43945834,9 5.00246167,9 L24.9975383,9 C25.5511826,9 26,9.44386482 26,10 C26,10.5522847 25.5605417,11 24.9975383,11 L5.00246167,11 C4.44881738,11 4,10.5561352 4,10 Z M4,15 C4,14.4477153 4.43945834,14 5.00246167,14 L24.9975383,14 C25.5511826,14 26,14.4438648 26,15 C26,15.5522847 25.5605417,16 24.9975383,16 L5.00246167,16 C4.44881738,16 4,15.5561352 4,15 Z" id="Combined-Shape" fill="#121212" opacity="0.5"></path>
            </g>
        </g>
    </g>
</svg>