<svg viewBox="0 0 42 42" xmlns="http://www.w3.org/2000/svg"><g fill="none" fill-rule="evenodd"><path d="M6 11.005A2 2 0 0 1 8.004 9h22c.55 0 1.309.313 1.702.706l3.588 3.588c.39.39.706 1.157.706 1.7v16.009A1.998 1.998 0 0 1 34.008 33H7.992C6.892 33 6 32.103 6 30.995v-19.99z" fill="#FFF"/><path d="M10 14a1 1 0 0 1 .999-1H22a1 1 0 1 1 0 2H11A.997.997 0 0 1 10 14zm0 5c0-.552.44-1 1.002-1h19.996A.999.999 0 0 1 32 19c0 .552-.44 1-1.002 1H11.002A.999.999 0 0 1 10 19zm0 5c0-.552.44-1 1.002-1h19.996A.999.999 0 0 1 32 24c0 .552-.44 1-1.002 1H11.002A.999.999 0 0 1 10 24z" fill="#121212" opacity=".5"/></g></svg>