<svg viewBox="0 0 42 42" xmlns="http://www.w3.org/2000/svg" xmlns:xlink="http://www.w3.org/1999/xlink"><defs><path d="M6 11.005A2 2 0 0 1 8.004 9h22c.55 0 1.309.313 1.702.706l3.588 3.588c.39.39.706 1.157.706 1.7v16.009A1.998 1.998 0 0 1 34.008 33H7.992C6.892 33 6 32.103 6 30.995v-19.99z" id="a"/></defs><g fill="none" fill-rule="evenodd"><use fill="#121212" xlink:href="#a"/><path stroke="#AB0119" stroke-width="2" d="M7 11.005v19.99A.998.998 0 0 0 7.992 32h26.016a.999.999 0 0 0 .992-.997V14.995c0-.28-.212-.793-.413-.994L31 10.413c-.205-.204-.708-.413-.994-.413H8.004A1 1 0 0 0 7 11.005z"/><path d="M17 18a2 2 0 1 1 0-4 2 2 0 0 1 0 4zm0 10a2 2 0 1 1 0-4 2 2 0 0 1 0 4z" fill="#AB0119"/><rect fill="#AB0119" opacity=".3" x="26" y="17" width="2" height="8" rx="1"/></g></svg>