<svg viewBox="0 0 42 42" xmlns="http://www.w3.org/2000/svg" xmlns:xlink="http://www.w3.org/1999/xlink"><defs><path d="M0 2.005A2 2 0 0 1 2.004 0h22c.55 0 1.309.313 1.702.706l3.588 3.588c.39.39.706 1.157.706 1.7v16.009A1.998 1.998 0 0 1 28.008 24H1.992C.892 24 0 23.103 0 21.995V2.005z" id="a"/></defs><g transform="translate(6 9)" fill="none" fill-rule="evenodd"><mask id="b" fill="#fff"><use xlink:href="#a"/></mask><use fill="#A0DBFB" xlink:href="#a"/><path fill="#70CCF5" mask="url(#b)" d="M0 0h30v8H0z"/><path fill="#FC8463" mask="url(#b)" d="M0 8h30v8H0z"/><path fill="#7CD061" mask="url(#b)" d="M0 16h30v8H0z"/><path fill="#FFF" opacity=".8" mask="url(#b)" d="M9 0h3v24H9z"/></g></svg>