<svg viewBox="0 0 42 42" xmlns="http://www.w3.org/2000/svg" xmlns:xlink="http://www.w3.org/1999/xlink"><defs><path d="M0 2.005A2 2 0 0 1 2.004 0h22c.55 0 1.309.313 1.702.706l3.588 3.588c.39.39.706 1.157.706 1.7v16.009A1.998 1.998 0 0 1 28.008 24H1.992C.892 24 0 23.103 0 21.995V2.005z" id="a"/></defs><g fill="none" fill-rule="evenodd"><g transform="translate(6 9)"><use fill="#1B1B1B" xlink:href="#a"/><path stroke="#F5DA55" stroke-width="2" d="M1 2.005v19.99A.998.998 0 0 0 1.992 23h26.016a.999.999 0 0 0 .992-.997V5.995c0-.28-.212-.793-.413-.994L25 1.413C24.794 1.209 24.29 1 24.005 1H2.004A1 1 0 0 0 1 2.005z"/></g><path d="M24.18 25.427L27.28 21l-3.1-4.426a1 1 0 0 1 1.64-1.147l3.5 5a1 1 0 0 1 0 1.147l-3.5 5a1 1 0 0 1-1.64-1.147zM12 19c0-.552.456-1 .995-1h8.01c.55 0 .995.444.995 1 0 .552-.456 1-.995 1h-8.01A.995.995 0 0 1 12 19zm0 4c0-.552.456-1 .995-1h8.01c.55 0 .995.444.995 1 0 .552-.456 1-.995 1h-8.01A.995.995 0 0 1 12 23z" fill="#F5DA55" fill-rule="nonzero"/></g></svg>