<svg viewBox="0 0 42 42" xmlns="http://www.w3.org/2000/svg" xmlns:xlink="http://www.w3.org/1999/xlink"><defs><path d="M6 11.005A2 2 0 0 1 8.004 9h22c.55 0 1.309.313 1.702.706l3.588 3.588c.39.39.706 1.157.706 1.7v16.009A1.998 1.998 0 0 1 34.008 33H7.992C6.892 33 6 32.103 6 30.995v-19.99z" id="a"/></defs><g fill="none" fill-rule="evenodd"><use fill="#1B1B1B" xlink:href="#a"/><path stroke="#F5DA55" stroke-width="2" d="M7 11.005v19.99A.998.998 0 0 0 7.992 32h26.016a.999.999 0 0 0 .992-.997V14.995c0-.28-.212-.793-.413-.994L31 10.413c-.205-.204-.708-.413-.994-.413H8.004A1 1 0 0 0 7 11.005z"/><path d="M24.18 25.427L27.28 21l-3.1-4.426a1 1 0 0 1 1.64-1.147l3.5 5a1 1 0 0 1 0 1.147l-3.5 5a1 1 0 0 1-1.64-1.147zM12 19c0-.552.456-1 .995-1h8.01c.55 0 .995.444.995 1 0 .552-.456 1-.995 1h-8.01A.995.995 0 0 1 12 19zm0 4c0-.552.456-1 .995-1h8.01c.55 0 .995.444.995 1 0 .552-.456 1-.995 1h-8.01A.995.995 0 0 1 12 23z" fill="#F5DA55" fill-rule="nonzero"/></g></svg>