<?xml version="1.0" encoding="UTF-8"?>
<svg width="42px" height="42px" viewBox="0 0 42 42" version="1.1" xmlns="http://www.w3.org/2000/svg" xmlns:xlink="http://www.w3.org/1999/xlink">
    <!-- Generator: Sketch 44.1 (41455) - http://www.bohemiancoding.com/sketch -->
    <desc>Created with Sketch.</desc>
    <defs>
        <path d="M0,2.00494659 C0,0.897645164 0.889763236,0 2.00359486,0 L24.004543,0 C24.5543187,0 25.3127724,0.312772393 25.7057732,0.70577316 L29.2942268,4.29422684 C29.6840146,4.68401459 30,5.45092539 30,5.99477117 L30,22.0025781 C30,23.1057238 29.1021596,24 28.008383,24 L1.99161703,24 C0.891677316,24 0,23.1029738 0,21.9950534 L0,2.00494659 Z" id="path-1"></path>
    </defs>
    <g id="文件名-(icons/files-5-10)" stroke="none" stroke-width="1" fill="none" fill-rule="evenodd">
        <g id="Babel">
            <g id="Group" transform="translate(6.000000, 9.000000)">
                <g id="Mask">
                    <use fill="#1B1B1B" fill-rule="evenodd" xlink:href="#path-1"></use>
                    <path stroke="#F5DA55" stroke-width="2" d="M1,2.00494659 L1,21.9950534 C1,22.5519156 1.44520033,23 1.99161703,23 L28.008383,23 C28.5518298,23 29,22.5514822 29,22.0025781 L29,5.99477117 C29,5.71418799 28.7879905,5.20220404 28.5871201,5.00133362 L24.9986664,1.41287994 C24.7943372,1.20855074 24.2907084,1 24.004543,1 L2.00359486,1 C1.44527569,1 1,1.44669671 1,2.00494659 Z"></path>
                </g>
                <path d="M18.1808539,16.4266235 L21.2794303,12.0000859 L18.1808539,7.57354821 C17.8641394,7.12109891 17.9741742,6.49756845 18.4266235,6.18085394 C18.8790728,5.86413943 19.5026033,5.97417422 19.8193178,6.42662352 L23.3193178,11.4266235 C23.5603419,11.7709437 23.5603419,12.2292281 23.3193178,12.5735482 L19.8193178,17.5735482 C19.5026033,18.0259975 18.8790728,18.1360323 18.4266235,17.8193178 C17.9741742,17.5026033 17.8641394,16.8790728 18.1808539,16.4266235 Z M6,10 C6,9.44771525 6.4556644,9 6.99539757,9 L15.0046024,9 C15.5543453,9 16,9.44386482 16,10 C16,10.5522847 15.5443356,11 15.0046024,11 L6.99539757,11 C6.44565467,11 6,10.5561352 6,10 Z M6,14 C6,13.4477153 6.4556644,13 6.99539757,13 L15.0046024,13 C15.5543453,13 16,13.4438648 16,14 C16,14.5522847 15.5443356,15 15.0046024,15 L6.99539757,15 C6.44565467,15 6,14.5561352 6,14 Z" id="Combined-Shape" fill="#F5DA55" fill-rule="nonzero"></path>
            </g>
        </g>
    </g>
</svg>