<?xml version="1.0" encoding="UTF-8"?>
<svg width="42px" height="42px" viewBox="0 0 42 42" version="1.1" xmlns="http://www.w3.org/2000/svg" xmlns:xlink="http://www.w3.org/1999/xlink">
    <!-- Generator: Sketch 44.1 (41455) - http://www.bohemiancoding.com/sketch -->
    <desc>Created with Sketch.</desc>
    <defs>
        <path d="M0,2.00494659 C0,0.897645164 0.889763236,0 2.00359486,0 L24.004543,0 C24.5543187,0 25.3127724,0.312772393 25.7057732,0.70577316 L29.2942268,4.29422684 C29.6840146,4.68401459 30,5.45092539 30,5.99477117 L30,22.0025781 C30,23.1057238 29.1021596,24 28.008383,24 L1.99161703,24 C0.891677316,24 0,23.1029738 0,21.9950534 L0,2.00494659 Z" id="path-1"></path>
    </defs>
    <g id="文件名-(icons/files-5-10)" stroke="none" stroke-width="1" fill="none" fill-rule="evenodd">
        <g id="Git">
            <g id="Oval-+-Oval-+-Oval-+-Path-2-+-Path-2-Mask" transform="translate(6.000000, 9.000000)">
                <mask id="mask-2" fill="white">
                    <use xlink:href="#path-1"></use>
                </mask>
                <use id="Mask" fill="#FF3E24" xlink:href="#path-1"></use>
                <circle id="Oval" fill="#FFFFFF" mask="url(#mask-2)" cx="8" cy="6" r="3"></circle>
                <circle id="Oval" fill="#FFFFFF" mask="url(#mask-2)" cx="8" cy="17" r="3"></circle>
                <circle id="Oval" fill="#FFFFFF" mask="url(#mask-2)" cx="20" cy="14" r="3"></circle>
                <path d="M21,14.5 L-2,-1" id="Path-2" stroke="#FFFFFF" stroke-width="2" mask="url(#mask-2)"></path>
                <path d="M8,17 L8,6" id="Path-2" stroke="#FFFFFF" stroke-width="2" mask="url(#mask-2)"></path>
            </g>
        </g>
    </g>
</svg>