<svg viewBox="0 0 42 42" xmlns="http://www.w3.org/2000/svg" xmlns:xlink="http://www.w3.org/1999/xlink"><defs><path d="M0 2.005A2 2 0 0 1 2.004 0h22c.55 0 1.309.313 1.702.706l3.588 3.588c.39.39.706 1.157.706 1.7v16.009A1.998 1.998 0 0 1 28.008 24H1.992C.892 24 0 23.103 0 21.995V2.005z" id="a"/><mask id="b" x="0" y="0" width="30" height="24" fill="#fff"><use xlink:href="#a"/></mask></defs><g transform="translate(6 9)" fill="none" fill-rule="evenodd"><use stroke="#9AD943" mask="url(#b)" stroke-width="4" opacity=".5" stroke-dasharray="5,2" xlink:href="#a"/><g transform="matrix(1 0 0 -1 4 15)" stroke="#9AD943" stroke-width="2"><circle cx="18" cy="3" r="3"/><path d="M11 8V4M0 3h15.5"/></g><path d="M0 2.005C0 .898.898 0 1.998 0H6l9 24H1.992C.892 24 0 23.103 0 21.995V2.005z" fill="#9AD943"/></g></svg>