<?xml version="1.0" encoding="UTF-8"?>
<svg width="42px" height="42px" viewBox="0 0 42 42" version="1.1" xmlns="http://www.w3.org/2000/svg" xmlns:xlink="http://www.w3.org/1999/xlink">
    <!-- Generator: Sketch 44.1 (41455) - http://www.bohemiancoding.com/sketch -->
    <desc>Created with Sketch.</desc>
    <defs>
        <path d="M0,2.00494659 C0,0.897645164 0.889763236,0 2.00359486,0 L24.004543,0 C24.5543187,0 25.3127724,0.312772393 25.7057732,0.70577316 L29.2942268,4.29422684 C29.6840146,4.68401459 30,5.45092539 30,5.99477117 L30,22.0025781 C30,23.1057238 29.1021596,24 28.008383,24 L1.99161703,24 C0.891677316,24 0,23.1029738 0,21.9950534 L0,2.00494659 Z" id="path-1"></path>
        <mask id="mask-2" maskContentUnits="userSpaceOnUse" maskUnits="objectBoundingBox" x="0" y="0" width="30" height="24" fill="white">
            <use xlink:href="#path-1"></use>
        </mask>
    </defs>
    <g id="文件名-(icons/files-5-10)" stroke="none" stroke-width="1" fill="none" fill-rule="evenodd">
        <g id="License">
            <g id="Group-2" transform="translate(6.000000, 9.000000)">
                <use id="Rectangle-3" stroke="#9AD943" mask="url(#mask-2)" stroke-width="4" opacity="0.5" stroke-dasharray="5,2" xlink:href="#path-1"></use>
                <g id="Group-3" transform="translate(14.500000, 11.000000) scale(1, -1) translate(-14.500000, -11.000000) translate(4.000000, 7.000000)" stroke="#9AD943" stroke-width="2">
                    <circle id="Oval-2" cx="18" cy="3" r="3"></circle>
                    <path d="M11,8 L11,4" id="Path-8"></path>
                    <path d="M0,3 L15.5,3" id="Path-7"></path>
                </g>
                <path d="M0,2.00494659 C0,0.897645164 0.898260623,1.30513932e-14 1.99791312,1.06211198e-14 L6,1.77635684e-15 L15,24 L1.99188419,24 C0.891796927,24 0,23.1029738 0,21.9950534 L0,2.00494659 Z" id="Rectangle-3" fill="#9AD943"></path>
            </g>
        </g>
    </g>
</svg>