<svg viewBox="0 0 42 42" xmlns="http://www.w3.org/2000/svg" xmlns:xlink="http://www.w3.org/1999/xlink"><defs><path d="M0 2.005A2 2 0 0 1 2.004 0h22c.55 0 1.309.313 1.702.706l3.588 3.588c.39.39.706 1.157.706 1.7v16.009A1.998 1.998 0 0 1 28.008 24H1.992C.892 24 0 23.103 0 21.995V2.005z" id="a"/></defs><g fill="none" fill-rule="evenodd"><path d="M6 11.005A2 2 0 0 1 8.004 9h22c.55 0 1.309.313 1.702.706l3.588 3.588c.39.39.706 1.157.706 1.7v16.009A1.998 1.998 0 0 1 34.008 33H7.992C6.892 33 6 32.103 6 30.995v-19.99z" fill="#94BBED"/><path fill="#6393DC" d="M20.918 14L15 17.288v7.233l5.918 3.287L27 24.521v-7.233z"/><g transform="translate(6 9)"><mask id="b" fill="#fff"><use xlink:href="#a"/></mask><path fill-opacity=".3" fill="#FFF" opacity=".7" mask="url(#b)" d="M-4 .379l18.707 10.379L33.674.378 14.707-10z"/><path fill-opacity=".3" fill="#FFF" opacity=".3" mask="url(#b)" d="M-4 23.379l18.707 10.379 18.967-10.38L14.707 13z"/></g></g></svg>