<?xml version="1.0" encoding="UTF-8"?>
<svg width="42px" height="42px" viewBox="0 0 42 42" version="1.1" xmlns="http://www.w3.org/2000/svg" xmlns:xlink="http://www.w3.org/1999/xlink">
    <!-- Generator: Sketch 44.1 (41455) - http://www.bohemiancoding.com/sketch -->
    <desc>Created with Sketch.</desc>
    <defs>
        <path d="M0,2.00494659 C0,0.897645164 0.889763236,0 2.00359486,0 L24.004543,0 C24.5543187,0 25.3127724,0.312772393 25.7057732,0.70577316 L29.2942268,4.29422684 C29.6840146,4.68401459 30,5.45092539 30,5.99477117 L30,22.0025781 C30,23.1057238 29.1021596,24 28.008383,24 L1.99161703,24 C0.891677316,24 0,23.1029738 0,21.9950534 L0,2.00494659 Z" id="path-1"></path>
    </defs>
    <g id="文件名-(icons/files-5-10)" stroke="none" stroke-width="1" fill="none" fill-rule="evenodd">
        <g id="WebPack">
            <g id="Group" transform="translate(6.000000, 9.000000)">
                <path d="M0,2.00494659 C0,0.897645164 0.889763236,0 2.00359486,0 L24.004543,0 C24.5543187,0 25.3127724,0.312772393 25.7057732,0.70577316 L29.2942268,4.29422684 C29.6840146,4.68401459 30,5.45092539 30,5.99477117 L30,22.0025781 C30,23.1057238 29.1021596,24 28.008383,24 L1.99161703,24 C0.891677316,24 0,23.1029738 0,21.9950534 L0,2.00494659 Z" id="Mask" fill="#94BBED"></path>
                <polygon id="Path-13" fill="#6393DC" points="14.9178082 5 9 8.28767123 9 15.5205479 14.9178082 18.8082192 21 15.5205479 21 8.28767123"></polygon>
                <g id="Path-14-+-Path-14-Mask">
                    <mask id="mask-2" fill="white">
                        <use xlink:href="#path-1"></use>
                    </mask>
                    <g id="Mask"></g>
                    <polygon id="Path-14" fill-opacity="0.3" fill="#FFFFFF" opacity="0.699999988" mask="url(#mask-2)" points="-4 0.378882999 14.707101 10.757766 33.6740229 0.378882999 14.707101 -10"></polygon>
                    <polygon id="Path-14" fill-opacity="0.3" fill="#FFFFFF" opacity="0.299999982" mask="url(#mask-2)" points="-4 23.378883 14.707101 33.757766 33.6740229 23.378883 14.707101 13"></polygon>
                </g>
            </g>
        </g>
    </g>
</svg>